<?xml version="1.0" encoding="UTF-8"?>
<svg width="256px" height="256px" viewBox="0 0 256 256" version="1.1" xmlns="http://www.w3.org/2000/svg" xmlns:xlink="http://www.w3.org/1999/xlink">
    <title>4iiii</title>
    <g id="4iiii" stroke="none" stroke-width="1" fill="none" fill-rule="evenodd">
        <path d="M155.584461,120.000567 C157.719176,120.006468 160,120.058259 160,120.146258 C160,120.222189 159.842016,120.867607 159.647575,121.576301 C159.44098,122.27234 158.78474,124.727459 158.17711,127.030715 C157.107681,131.055086 156.828172,132.130782 156.171931,134.522625 C155.928879,135.459114 155.005282,138.926653 152.441083,148.569956 L152.441083,148.569956 L152.064353,150 L148.005385,150 C147.909987,150 147.816822,149.999992 147.725839,149.999973 L146.735509,149.999036 C144.133453,149.993672 143.954012,149.960452 144.00718,149.772205 C144.043638,149.658308 144.347452,148.531991 144.675573,147.279121 C145.089203,145.717692 145.626488,143.695404 146.171986,141.645217 L146.444885,140.619804 C147.474382,136.752381 148.464532,133.042881 148.63732,132.409198 C148.795304,131.814401 149.062661,130.814636 149.232797,130.194529 C149.402934,129.561766 150.071327,127.056026 150.715414,124.626217 C151.359502,122.183753 151.906369,120.158913 151.942827,120.095637 C151.976458,120.035598 153.242839,120.005229 154.761981,120.000621 Z M172.241353,120.000873 C173.753383,120.005515 175,120.028793 175,120.073836 C175,120.077453 174.997526,120.090306 174.992716,120.111874 L174.971411,120.202199 C174.859246,120.663906 174.430303,122.305459 173.921212,124.226028 C173.315152,126.454034 172.042424,131.251841 171.084848,134.87235 C170.115152,138.492858 168.818182,143.379279 168.2,145.721217 L168.2,145.721217 L167.060606,150 L163.036364,150 C162.957143,150 162.878432,149.999968 162.800297,149.999904 L162.338896,149.999144 C160.449443,149.994429 159,149.970613 159,149.936704 C159,149.886068 160.50303,144.227441 161.363636,141.012024 C161.508606,140.464643 162.053692,138.417207 162.61191,136.308912 L162.757576,135.758488 C163.697436,132.195757 164.081234,130.740649 164.433794,129.43495 L164.509055,129.15673 C164.621804,128.740691 164.735198,128.325636 164.866667,127.846537 C165.09697,126.973058 165.654545,124.896962 166.090909,123.225958 C166.527273,121.567613 166.927273,120.149791 166.951515,120.099155 C166.985342,120.046163 168.728856,120.012341 170.584333,120.002785 L171.142737,120.000651 L171.142737,120.000651 Z M139.751606,109.000716 C141.666258,109.004531 143,109.022999 143,109.041466 C143,109.043005 142.997512,109.053638 142.992652,109.072932 L142.971078,109.156366 C142.833559,109.681042 142.222191,111.935857 141.494564,114.602482 C140.654028,117.624222 139.637859,121.356958 139.211319,122.893221 C137.839473,127.921675 137.219759,130.162675 136.670763,132.14811 L136.574477,132.496343 L136.574477,132.496343 L136.526624,132.669436 C136.200446,133.8502 135.911904,134.980178 135.874268,135.170624 L135.874268,135.170624 L135.824087,135.526123 L138.80187,135.526356 C140.226037,135.529611 141.369111,135.56652 141.369111,135.614997 C141.369111,135.678479 140.955116,137.227438 140.440758,139.08111 L140.440758,139.08111 L139.524951,142.445652 L136.652077,142.509134 L133.791748,142.572616 L133.578478,143.39788 C133.46557,143.85495 133.189573,144.845268 132.976303,145.619748 C132.763033,146.381531 132.411765,147.689258 132.198495,148.501827 L132.198495,148.501827 L131.797045,150 L126.869365,149.999469 C124.656575,149.994746 122.927516,149.959284 122.927516,149.923822 C122.927516,149.885733 123.153331,149.009682 123.429328,147.993971 C123.71787,146.965564 124.14441,145.403909 124.382771,144.515162 C124.621132,143.626415 124.846947,142.80115 124.884583,142.699579 C124.887007,142.687829 124.885673,142.682165 124.88173,142.676674 L124.870242,142.665921 C124.674981,142.530855 122.576701,142.507298 111.473655,142.483741 L111.473655,142.483741 L98,142.445652 L98.2383607,141.620387 C98.3638138,141.163317 98.8530806,139.39852 99.3172568,137.697204 L99.3172568,137.697204 L100.170337,134.611983 L115.964873,121.814028 L131.771954,109.016073 L137.39225,109.003377 C137.672808,109.002223 137.948701,109.001383 138.218458,109.00083 Z M188.272628,120.00094 C190.866543,120.006136 191.045983,120.038003 190.992816,120.215348 C190.956358,120.342024 190.713306,121.266756 190.445949,122.28016 C190.178592,123.293564 189.741098,124.965682 189.461589,126.017089 C188.963332,127.891887 188.39216,129.994701 186.909544,135.581093 C186.496355,137.15187 185.973794,139.115342 185.755047,139.9514 C185.256791,141.775528 184.235973,145.6518 183.749869,147.488596 C183.555427,148.223314 183.324528,149.07204 183.227307,149.388729 L183.227307,149.388729 L183.069323,149.958769 L179.034662,149.996772 C178.796384,149.998129 178.56285,149.99905 178.335777,149.99955 L177.466027,149.999345 C176.018539,149.995188 175,149.971437 175,149.933434 C175,149.882764 175.583325,147.678609 176.288175,145.03109 C177.44655,140.672912 177.843394,139.173822 178.196361,137.860665 L178.256573,137.636875 C178.356658,137.265265 178.456508,136.896363 178.572863,136.467822 C178.803762,135.593761 179.16834,134.225665 179.374934,133.427609 C179.581529,132.629553 180.091938,130.742087 180.492973,129.247316 C181.099631,126.969182 181.457403,125.625003 181.80522,124.318181 L181.935652,123.828123 C182.088366,123.254346 182.244891,122.666267 182.425236,121.988806 L182.425236,121.988806 L182.947797,120 Z M206,120 L205.915216,120.278688 C205.866768,120.443367 205.600303,121.456777 205.321726,122.533525 C204.837245,124.357664 203.674489,128.753331 199.629069,143.941816 L199.629069,143.941816 L198.03028,149.958939 L194.021196,149.996942 C193.828239,149.997815 193.642771,149.998508 193.464676,149.999012 L192.265426,149.999116 C190.704025,149.993688 190,149.96287 190,149.895601 C190,149.819595 190.242241,148.856855 190.53293,147.767439 C190.770845,146.911469 191.352717,144.710405 191.967169,142.405441 L192.13532,141.775171 C192.247648,141.354517 192.360117,140.934159 192.470855,140.521556 C193.233914,137.633337 194.687358,132.160922 195.692657,128.360634 C196.697956,124.560346 197.606359,121.127419 197.715367,120.722055 L197.715367,120.722055 L197.90916,120 L201.95458,120 L206,120 Z M50.9857831,124 C50.9889759,124 51.0129217,124.021884 51.0532304,124.061353 L51.1543644,124.162465 C51.2947724,124.304812 51.5083333,124.527298 51.7392771,124.775316 C54.3573494,127.551449 57.5756627,130.165015 60.6662651,132.003265 C61.9306024,132.766076 65.046747,134.266689 66.4771084,134.816913 C70.8448193,136.492597 74.6378313,137.242903 79.3759036,137.342944 C82.760241,137.417974 85.34,137.155367 88.2901205,136.442576 C91.1891566,135.742291 94.3436145,134.541801 96.3486747,133.391331 C96.7062651,133.178745 97,133.041189 97,133.091209 C97,133.193102 96.0259639,134.097792 94.9706933,134.997146 L94.6525679,135.265984 C94.3869205,135.488535 94.121776,135.705702 93.8710843,135.904857 C90.5122892,138.593454 86.4127711,140.64429 82.0578313,141.81977 C72.5178313,144.395821 61.7645783,142.707632 52.8759036,137.217893 C51.2922892,136.22999 48.6614458,134.266689 47.2310843,132.978663 C45.8390361,131.728153 44,129.827377 44,129.627296 C44,129.56477 45.5708434,128.276745 47.486506,126.763627 C49.3893976,125.25051 50.973012,124.012505 50.9857831,124 Z M131.646501,118.093988 C131.7845,117.751185 131.571229,117.84006 130.893783,118.424094 C130.856984,118.456258 130.791079,118.512009 130.697233,118.590399 L130.57128,118.695274 C128.993497,120.005632 122.333705,125.433175 113.518539,132.593258 C111.762197,134.015253 110.23167,135.259499 110.131307,135.36107 C110.020381,135.463977 110.699565,135.504845 113.91542,135.509069 L115.174738,135.509062 C116.090114,135.508076 117.161079,135.505185 118.411207,135.50073 L118.411207,135.50073 L126.866741,135.462641 L127.080011,134.700858 C127.192919,134.281877 127.506551,133.164595 127.757457,132.225063 C127.832729,131.956625 127.927459,131.612527 128.032869,131.22712 L128.197896,130.62232 C128.425687,129.786062 128.678641,128.853266 128.886535,128.098738 C129.262894,126.765618 129.814887,124.708804 130.141065,123.52804 C131.295233,119.300144 131.558684,118.322523 131.646501,118.093988 Z M58.8808446,117 C58.957825,117 59.4197075,117.523909 59.9072501,118.181842 C60.9208256,119.509891 64.0385324,122.555875 65.4883302,123.640245 C70.3894167,127.295426 76.57351,129.817501 82.7576034,130.682561 C87.132657,131.291757 91.9182728,131.133366 95.8827642,130.243939 C96.4601173,130.1221 96.9733201,130.024628 96.9989802,130.048996 C97.0246404,130.085548 96.5627579,130.329226 95.9854047,130.609457 C89.5960303,133.655441 82.1674202,134.691076 74.9184311,133.545786 C66.6045463,132.217737 59.0861257,128.367613 54.0182484,122.84829 C53.017503,121.763919 52.9020323,121.58116 53.0559932,121.422769 C53.1586337,121.337481 54.4801309,120.301847 55.994079,119.132189 C57.5080272,117.962531 58.8166942,117 58.8808446,117 Z M76.9732128,112.068485 C81.860647,111.775521 86.6970375,112.422484 91.4951453,114.009375 C97.0461476,115.840403 102.265366,119.136254 105.876708,123.103481 C106.476471,123.750445 106.974147,124.336374 107,124.385201 C107.024738,124.444747 105.640615,125.558686 104.199949,126.677088 L103.767406,127.011692 C102.400878,128.065048 101.105367,129.027676 101.040317,128.999392 C100.976512,128.974978 100.478836,128.389049 99.9301166,127.681052 C98.6029805,125.972092 95.7190114,123.237757 93.7921118,121.858382 C88.7515464,118.232947 82.5242151,115.864817 76.2713619,115.181233 C74.050961,114.937096 69.9547041,114.924889 67.7853468,115.169026 C66.3306014,115.339922 63.3573059,115.889231 63.1020874,116.04792 C63.0382828,116.072333 63,116.060127 63,116.023506 C63,115.877024 66.6241027,114.290133 67.9512389,113.838479 C70.7458814,112.898551 74.0764828,112.251588 76.9732128,112.068485 Z M78.0088646,118.268468 C80.1621698,117.473527 82.6001073,118.499257 83.602508,120.614827 C83.9490169,121.332838 83.9985181,121.576449 83.9985181,122.499607 C84.0108935,123.371478 83.9490169,123.679197 83.6891352,124.281814 C83.2312485,125.294723 82.4763541,126.102486 81.4987041,126.589708 C80.7685604,126.961535 80.5705553,127 79.5681546,127 C78.7018824,127 78.2934969,126.935892 77.748983,126.717924 C76.7589576,126.307632 75.8926854,125.448582 75.3976727,124.41003 C75.0387885,123.653554 74.9892873,123.435586 75.0016626,122.52525 C75.0140379,120.512254 76.1154411,118.948014 78.0088646,118.268468 Z M84.3639947,104.050066 C85.8644162,103.912385 90.3148189,104.075099 92.1204108,104.337945 C97.6007638,105.113966 103.01754,107.179183 107.709536,110.245718 C110.265338,111.922925 111.384297,112.836627 113.851091,115.252306 L113.851091,115.252306 L116,117.342556 L114.296132,118.694335 C113.355189,119.432806 111.753044,120.709486 110.723094,121.523057 L110.723094,121.523057 L108.853925,123 L107.925698,122.036232 C105.306318,119.307642 103.144694,117.50527 100.232859,115.640316 C95.7315947,112.736495 90.5182658,110.783926 85.0633437,109.945323 C82.5584028,109.569829 77.4213665,109.532279 75.0817263,109.88274 C72.2970457,110.3083 69.3089182,111.096838 67.0074243,112.035573 C66.0537666,112.423584 63.4598176,113.687747 63.2182243,113.875494 C63.1292162,113.950593 63.0274927,113.988142 63.0020619,113.950593 C62.9639156,113.913043 63.4598176,113.412385 64.0955894,112.836627 C69.94469,107.554677 76.3659853,104.776021 84.3639947,104.050066 Z M187.011592,109.241712 C188.900954,108.574902 191.197824,109.331474 192.247469,110.972852 C193.754019,113.345156 192.926652,116.371446 190.407503,117.602479 C189.703623,117.948707 189.468997,118 188.555188,118 C187.209173,117.987177 186.33241,117.653772 185.406253,116.78179 C184.541839,115.948278 184.097284,115.025003 184.010842,113.858086 C183.875006,111.742248 185.023441,109.959814 187.011592,109.241712 Z M156.23494,109.136372 C157.013618,108.880308 158.558615,108.995537 159.423813,109.392436 C160.400251,109.853351 161.37669,110.877606 161.722769,111.837846 C162.217168,113.233394 162.044128,114.872203 161.25309,116.050097 C160.783411,116.767076 160.289012,117.176778 159.324934,117.637693 C158.336135,118.098608 156.840578,118.124214 155.77762,117.688906 C152.959546,116.549421 152.081988,112.849298 154.096664,110.57033 C154.727023,109.853351 155.307941,109.456452 156.23494,109.136372 Z M172.231535,109.179339 C174.033738,108.591409 176.382816,109.498865 177.364705,111.173185 C177.911581,112.118984 178.048299,112.719694 177.986154,113.857209 C177.886723,115.54431 177.004265,116.835198 175.425784,117.602062 C174.692474,117.959932 174.468752,118.011056 173.536579,117.998275 C172.18182,117.985494 171.299362,117.653186 170.367188,116.784073 C169.36044,115.838275 169.012429,114.994724 169,113.537682 C169,112.157327 169.236151,111.518274 170.143466,110.521351 C170.752487,109.856735 171.349078,109.460522 172.231535,109.179339 Z M203.034088,109.23254 C205.20916,108.492569 207.719815,109.57701 208.676846,111.656585 C208.950284,112.243459 209,112.536896 209,113.506514 C209,114.501648 208.950284,114.744053 208.651988,115.381959 C208.440696,115.815736 208.030539,116.364335 207.632812,116.747079 C204.823862,119.375254 200.237567,117.614632 200.013846,113.825467 C199.951701,112.689994 200.088419,112.090362 200.635295,111.14626 C201.144883,110.291465 202.052199,109.564252 203.034088,109.23254 Z" fill="#FF375F" fill-rule="nonzero"></path>
    </g>
</svg>