<?xml version="1.0" encoding="UTF-8"?>
<svg width="240px" height="80px" viewBox="0 0 240 80" version="1.1" xmlns="http://www.w3.org/2000/svg" xmlns:xlink="http://www.w3.org/1999/xlink">
    <title>download-app-store</title>
    <g  stroke="none" stroke-width="1" fill="none" fill-rule="evenodd">
        <g  transform="translate(0.000000, -0.000130)" fill-rule="nonzero">
            <path d="M219.967531,0.00013 L19.0432142,0.00013 C18.3108198,0.00013 17.5872133,0.00013 16.8567562,0.00438998615 C16.2452957,0.00838997315 15.6387085,0.0200099354 15.0213761,0.0297899036 C13.6802448,0.0455934595 12.3422674,0.163741988 11.0190711,0.383208755 C9.69773346,0.607453282 8.41778766,1.03021813 7.22252369,1.63720468 C6.02872156,2.24932611 4.93791043,3.04471517 3.98966231,3.99451702 C3.03643606,4.94164793 2.24184837,6.03640314 1.6364532,7.23668648 C1.02938716,8.43458083 0.608445619,9.71823501 0.388167058,11.0433141 C0.165794252,12.3667196 0.0461334215,13.7053865 0.030258456,15.0473011 C0.0117239034,15.6604991 0.00976659076,16.2757371 0,16.8890151 L0,63.1173849 C0.00976659076,63.7383829 0.0117239034,64.3399809 0.030258456,64.9611789 C0.0461382895,66.3030269 0.165799122,67.641627 0.388167058,68.9649659 C0.607837363,70.2908196 1.0288038,71.5752107 1.6364532,72.7735535 C2.24157349,73.9699554 3.03627291,75.0602785 3.98966231,76.002143 C4.93431497,76.956168 6.02583118,77.7520982 7.22252369,78.3595353 C8.41777858,78.9681464 9.69758639,79.3934277 11.0190711,79.6211312 C12.3424923,79.83884 13.6803321,79.9570365 15.0213761,79.9747301 C15.6387085,79.98833 16.2452957,79.99613 16.8567562,79.99613 C17.5871933,80.00013 18.3108597,80.00013 19.0432142,80.00013 L219.967531,80.00013 C220.685345,80.00013 221.414744,80.00013 222.132559,79.99613 C222.741123,79.99613 223.365266,79.98833 223.97383,79.9747301 C225.312339,79.9579775 226.64766,79.8397735 227.968346,79.6211312 C229.294094,79.3918247 230.57849,78.9666561 231.779514,78.3595353 C232.975127,77.7517465 234.065635,76.955838 235.009479,76.002143 C235.960408,75.0565897 236.756805,73.9670641 237.369439,72.7735535 C237.972528,71.5743389 238.389488,70.2900505 238.605941,68.9649659 C238.828665,67.6414454 238.952572,66.3031431 238.976632,64.9611789 C238.984421,64.3399809 238.984421,63.7383829 238.984421,63.1173849 C239,62.3907872 239,61.6681896 239,60.929792 L239,19.072588 C239,18.3401704 239,17.6136128 238.984421,16.8890151 C238.984421,16.2757371 238.984421,15.6604991 238.976632,15.0472211 C238.952577,13.7051903 238.82867,12.3668211 238.605941,11.0432341 C238.388884,9.71892161 237.97195,8.43536914 237.369439,7.23660648 C236.13658,4.83076646 234.181622,2.87243146 231.779514,1.63702468 C230.578486,1.03152141 229.293953,0.608868842 227.968346,0.383028756 C226.647889,0.162595038 225.312428,0.0444053859 223.97383,0.0295099045 C223.365266,0.0197499362 222.741123,0.00802997432 222.132559,0.004129987 C221.414744,0.00013 220.685345,0.00013 219.967531,0.00013 L219.967531,0.00013 Z"  fill="#FF375F"></path>
            <path d="M17.1541632,78.9961041 C16.5443797,78.9961041 15.9493265,78.9882535 15.3443264,78.9745653 C14.0910196,78.958141 12.8406422,78.8484027 11.6034487,78.6462505 C10.4498282,78.4464196 9.33228007,78.0746977 8.2876662,77.543346 C7.25263087,77.016397 6.30859545,76.3254466 5.49172468,75.4969642 C4.66302988,74.6782408 3.9731036,73.7286615 3.44928639,72.6858562 C2.91969716,71.6362736 2.5531899,70.5112475 2.36253174,69.3499679 C2.15663749,68.1021598 2.04524016,66.8404291 2.02930035,65.5756555 C2.01661154,65.1511208 2,63.7376156 2,63.7376156 L2,17.2369589 C2,17.2369589 2.01769229,15.8451737 2.02940042,15.4362797 C2.04466267,14.1735096 2.15541221,12.9137368 2.36069047,11.6678653 C2.55170055,10.5034045 2.91849155,9.37513425 3.44836575,8.32211343 C3.97025781,7.28002847 4.65635375,6.32974002 5.48005657,5.50808671 C6.30283357,4.67862653 7.24988878,3.98411821 8.28668552,3.44988871 C9.32889857,2.92024418 10.4443347,2.55114448 11.5956233,2.35495563 C12.8368799,2.15077265 14.0915982,2.04038145 15.3492498,2.02470832 L17.1551438,2.00013 L222.835069,2.00013 L224.662538,2.02569468 C225.90875,2.04058901 227.152071,2.14999538 228.381921,2.35298292 C229.544865,2.55163267 230.671925,2.92330777 231.726043,3.4557867 C233.803123,4.53241395 235.493202,6.23573983 236.5594,8.32702506 C237.080816,9.37277646 237.44195,10.4918434 237.630543,11.646246 C237.838266,12.90234 237.954522,14.1720126 237.978385,15.4451368 C237.984189,16.015209 237.984189,16.6275534 237.984189,17.2369589 C238,17.9918214 238,18.7103096 238,19.4346958 L238,61.5634104 C238,62.2947211 238,63.0083178 237.984189,63.7277521 C237.984189,64.3823688 237.984189,64.9820316 237.976384,65.5992072 C237.953037,66.8496131 237.838719,68.0966229 237.634346,69.3302408 C237.447596,70.4998976 237.083084,71.633705 236.553596,72.6918951 C236.026076,73.7233818 235.340111,74.6647357 234.520984,75.481263 C233.703378,76.3141977 232.757677,77.0091906 231.720239,77.5395214 C230.669041,78.0749578 229.54364,78.4480543 228.381921,78.6462505 C227.144821,78.8494815 225.894324,78.9592268 224.640923,78.9745653 C224.054716,78.9882535 223.44089,78.9961041 222.844876,78.9961041 L220.67537,79.00013 L17.1541632,78.9961041 Z"  fill="#FF2C55"></path>
            <g  transform="translate(19.000000, 17.000130)" fill="#FFFFFF">
                <path d="M30.53776,23.60136 C30.581474,20.2084182 32.3602459,17.0743722 35.25088,15.29724 C33.4190252,12.6810255 30.4607841,11.0817567 27.26856,10.98188 C23.91008,10.62936 20.65418,12.99154 18.94276,12.99154 C17.19822,12.99154 14.56322,11.01688 11.72576,11.07526 C7.99240252,11.1958768 4.59627435,13.267051 2.77992,16.531 C-1.08808,23.22784 1.7971,33.06994 5.50232,38.48316 C7.35612,41.13386 9.52268,44.09476 12.35758,43.98976 C15.1317,43.8747 16.16778,42.2208 19.51638,42.2208 C22.8339,42.2208 23.80596,43.98976 26.69838,43.923 C29.67514,43.87468 31.55064,41.26052 33.3394,38.58472 C34.6713523,36.6959994 35.6962874,34.6085519 36.37624,32.3997 C32.8407531,30.9043626 30.5418865,27.4400687 30.53776,23.60136 L30.53776,23.60136 Z" ></path>
                <path d="M25.0745,7.42178 C26.6975532,5.47336381 27.4971699,2.96900491 27.30354,0.44054 C24.8238757,0.700980975 22.5333604,1.88609935 20.88838,3.75976 C19.2640374,5.60837805 18.4411493,8.02686536 18.60096,10.48254 C21.1138737,10.5084135 23.4998322,9.38030644 25.0745,7.42178 L25.0745,7.42178 Z" ></path>
            </g>
            <g  transform="translate(68.000000, 35.000130)" fill="#FFFFFF">
                <path d="M16.60454,19.2793 L7.13774,19.2793 L4.8643,25.9922 L0.85454,25.9922 L9.82134,1.1562 L13.98734,1.1562 L22.95414,25.9922 L18.876,25.9922 L16.60454,19.2793 Z M8.1182,16.18164 L15.6222,16.18164 L11.92298,5.2871 L11.81946,5.2871 L8.1182,16.18164 Z" ></path>
                <path d="M42.31938,16.93946 C42.31938,22.56642 39.30766,26.18164 34.76274,26.18164 C32.4135105,26.3045292 30.2006648,25.0740614 29.06548,23.01364 L28.97948,23.01364 L28.97948,31.9824 L25.26268,31.9824 L25.26268,7.88476 L28.8604,7.88476 L28.8604,10.89648 L28.92876,10.89648 C30.1143766,8.84897583 32.3296085,7.61903767 34.69438,7.6953 C39.29,7.69532 42.31938,11.32812 42.31938,16.93946 Z M38.49906,16.93946 C38.49906,13.27346 36.60452,10.86328 33.7139,10.86328 C30.87406,10.86328 28.9639,13.32422 28.9639,16.93946 C28.9639,20.5879 30.87406,23.03126 33.7139,23.03126 C36.60454,23.03126 38.49906,20.63868 38.49906,16.93946 Z" ></path>
                <path d="M62.24906,16.93946 C62.24906,22.56642 59.23734,26.18164 54.69242,26.18164 C52.3431905,26.3045292 50.1303448,25.0740614 48.99516,23.01364 L48.90916,23.01364 L48.90916,31.9824 L45.19236,31.9824 L45.19236,7.88476 L48.79,7.88476 L48.79,10.89648 L48.85836,10.89648 C50.0439852,8.84897707 52.2592256,7.61904615 54.624,7.69532 C59.21976,7.69532 62.24906,11.32812 62.24906,16.93946 Z M58.42876,16.93946 C58.42876,13.27346 56.5342,10.86328 53.64358,10.86328 C50.80374,10.86328 48.89358,13.32422 48.89358,16.93946 C48.89358,20.5879 50.80374,23.03126 53.64358,23.03126 C56.53422,23.03126 58.42876,20.63868 58.42876,16.93946 L58.42876,16.93946 Z" ></path>
                <path d="M75.42094,19.07226 C75.69634,21.53516 78.08894,23.15226 81.35844,23.15226 C84.49126,23.15226 86.74516,21.53508 86.74516,19.31436 C86.74516,17.38662 85.38578,16.23236 82.16704,15.44132 L78.9483,14.66592 C74.38776,13.56436 72.27056,11.43154 72.27056,7.9706 C72.27056,3.68544 76.00494,0.74208 81.30766,0.74208 C86.55566,0.74208 90.15336,3.68544 90.27446,7.9706 L86.52246,7.9706 C86.29786,5.49208 84.24902,3.996 81.25488,3.996 C78.26074,3.996 76.21192,5.50968 76.21192,7.7128 C76.21192,9.46866 77.52052,10.50186 80.72168,11.2928 L83.458,11.96468 C88.5537,13.16976 90.6709,15.21668 90.6709,18.84944 C90.6709,23.49592 86.96972,26.40608 81.083,26.40608 C75.57518,26.40608 71.85644,23.56428 71.6162,19.07208 L75.42094,19.07226 Z" ></path>
                <path d="M98.69242,3.5996 L98.69242,7.88476 L102.13578,7.88476 L102.13578,10.82812 L98.69242,10.82812 L98.69242,20.81054 C98.69242,22.36132 99.38188,23.08398 100.89554,23.08398 C101.304323,23.0768519 101.712444,23.0481453 102.1182,22.99798 L102.1182,25.92376 C101.437657,26.0509191 100.745942,26.108509 100.05374,26.09564 C96.38774,26.09564 94.95804,24.71868 94.95804,21.20696 L94.95804,10.82812 L92.32524,10.82812 L92.32524,7.88476 L94.958,7.88476 L94.958,3.5996 L98.69242,3.5996 Z" ></path>
                <path d="M104.13,16.93946 C104.13,11.2422 107.48546,7.66212 112.7179,7.66212 C117.9679,7.66212 121.30774,11.24212 121.30774,16.93946 C121.30774,22.65236 117.98548,26.2168 112.7179,26.2168 C107.45218,26.2168 104.13,22.65234 104.13,16.93946 Z M117.52062,16.93946 C117.52062,13.03126 115.7296,10.72462 112.71788,10.72462 C109.70616,10.72462 107.9171,13.04884 107.9171,16.93946 C107.9171,20.86328 109.70616,23.15236 112.71788,23.15236 C115.7296,23.15236 117.52062,20.86328 117.52062,16.93946 L117.52062,16.93946 Z" ></path>
                <path d="M124.3721,7.88476 L127.91704,7.88476 L127.91704,10.96676 L128.00304,10.96676 C128.497392,8.98273681 130.315305,7.61726311 132.3585,7.69528 C132.786828,7.69378446 133.213974,7.74030149 133.63194,7.83396 L133.63194,11.31052 C133.091202,11.1452866 132.527119,11.0694226 131.96194,11.08592 C130.869236,11.0415909 129.811742,11.4770695 129.067123,12.2780119 C128.322504,13.0789544 127.965153,14.1653415 128.0889,15.25192 L128.0889,25.99216 L124.3721,25.99216 L124.3721,7.88476 Z" ></path>
                <path d="M150.7686,20.67382 C150.2686,23.96092 147.06742,26.21678 142.97172,26.21678 C137.70414,26.21678 134.43462,22.68748 134.43462,17.02538 C134.43462,11.3457 137.72172,7.6621 142.81548,7.6621 C147.82524,7.6621 150.97564,11.1035 150.97564,16.59374 L150.97564,17.86718 L138.18658,17.86718 L138.18658,18.09178 C138.067175,19.4398432 138.532663,20.7742389 139.46464,21.7555399 C140.396617,22.7368408 141.705255,23.2704666 143.05768,23.22068 C144.861365,23.3896792 146.561886,22.3539553 147.23932,20.6738 L150.7686,20.67382 Z M138.204125,15.26954 L147.25688,15.26954 C147.324331,14.058195 146.883393,12.8736462 146.0403,12.0012631 C145.197207,11.12888 144.028402,10.6477608 142.81548,10.67382 C141.592964,10.6665245 140.418181,11.1478693 139.552251,12.0108665 C138.686321,12.8738637 138.200993,14.0470058 138.204125,15.26954 L138.204125,15.26954 Z" ></path>
            </g>
            <path d="M75.3244936,17.0137498 C76.9074945,16.9000181 78.4580089,17.5029957 79.549268,18.656717 C80.6405272,19.8104383 81.1575064,21.3932948 80.9579107,22.9696158 C80.9579107,26.7989521 78.8907005,29.00013 75.3244936,29.00013 L71,29.00013 L71,17.0137498 L75.3244936,17.0137498 Z M72.8594999,27.3049971 L75.1167834,27.3049971 C76.2480776,27.3726987 77.349621,26.9264507 78.1155564,26.0901594 C78.8814918,25.2538681 79.2302754,24.1165674 79.0650631,22.9940432 C79.2182554,21.8761774 78.864449,20.7482616 78.1004127,19.9187903 C77.3363764,19.0893189 76.2420656,18.6450949 75.1167834,18.7076172 L72.8594999,18.7076172 L72.8594999,27.3049971 Z"  fill="#FFFFFF"></path>
            <path d="M83.021256,24.496288 C82.8584065,22.9430652 83.6746624,21.4398808 85.1276882,20.617166 C86.5807141,19.7944513 88.4192859,19.7944513 89.8723118,20.617166 C91.3253376,21.4398808 92.1415935,22.9430652 91.978744,24.496288 C92.144692,26.0511798 91.3291811,27.5572798 89.8748669,28.3817656 C88.4205527,29.2062515 86.5794473,29.2062515 85.1251331,28.3817656 C83.6708189,27.5572798 82.855308,26.0511798 83.021256,24.496288 Z M90.0509016,24.496288 C90.0509016,22.6179259 89.1260831,21.5194708 87.5030898,21.5194708 C85.8738958,21.5194708 84.9574082,22.6179259 84.9574082,24.4963072 C84.9574082,26.3897182 85.873959,27.4797059 87.5030898,27.4797059 C89.1261253,27.4797059 90.0509016,26.3821745 90.0509016,24.496288 L90.0509016,24.496288 Z"  fill="#FFFFFF"></path>
            <polygon  fill="#FFFFFF" points="102.62253 29.00013 100.849768 29.00013 99.0601036 22.3716259 98.924897 22.3716259 97.1427319 29.00013 95.3868543 29.00013 93 20.00013 94.73334 20.00013 96.2845136 26.8676585 96.4122204 26.8676585 98.1925009 20.00013 99.8319405 20.00013 101.612221 26.8676585 101.747428 26.8676585 103.291082 20.00013 105 20.00013"></polygon>
            <path d="M108,20.1791335 L109.782227,20.1791335 L109.782227,21.5804263 L109.920581,21.5804263 C110.401694,20.5487042 111.525918,19.9175897 112.720056,20.008862 C113.644673,19.9434954 114.550733,20.2770219 115.182409,20.9152703 C115.814085,21.5535187 116.102829,22.4272273 115.967114,23.2897046 L115.967114,29.0000321 L114.115721,29.0000321 L114.115721,23.726863 C114.115721,22.3093109 113.460618,21.6043451 112.09139,21.6043451 C111.464237,21.5768789 110.855601,21.8083156 110.425048,22.2379794 C109.994495,22.6676433 109.784966,23.2526825 109.851393,23.8397179 L109.851393,29.00013 L108,29.00013 L108,20.1791335 Z"  fill="#FFFFFF"></path>
            <polygon  fill="#FFFFFF" points="118.11133 17.00013 119.88867 17.00013 119.88867 30.00013 118.11133 30.00013"></polygon>
            <path d="M122.021201,24.4963942 C121.858493,22.943089 122.674794,21.4398851 124.127778,20.6171679 C125.580762,19.7944507 127.419238,19.7944507 128.872222,20.6171679 C130.325206,21.4398851 131.141507,22.943089 130.978799,24.4963942 C131.144519,26.0513224 130.328943,27.5573612 128.874706,28.3818005 C127.42047,29.2062398 125.57953,29.2062398 124.125294,28.3818005 C122.671057,27.5573612 121.855481,26.0513224 122.021201,24.4963942 L122.021201,24.4963942 Z M129.050122,24.4963942 C129.050122,22.6180553 128.125399,21.5196138 126.502573,21.5196138 C124.873547,21.5196138 123.957154,22.6180553 123.957154,24.4964134 C123.957154,26.389801 124.87361,27.4797752 126.502573,27.4797752 C128.12542,27.4797752 129.050122,26.3822574 129.050122,24.4963942 L129.050122,24.4963942 Z"  fill="#FFFFFF"></path>
            <path d="M133,26.3896519 C133,24.8280107 134.277528,23.9277285 136.545207,23.7997801 L139.127124,23.6643177 L139.127124,22.915489 C139.127124,21.9991965 138.461498,21.4817962 137.175715,21.4817962 C136.125595,21.4817962 135.397947,21.8326959 135.189146,22.4460623 L133.367962,22.4460623 C133.56021,20.9559188 135.100262,20.00013 137.262525,20.00013 C139.652195,20.00013 141,21.0829039 141,22.915489 L141,28.8431173 L139.189146,28.8431173 L139.189146,27.6239178 L139.040314,27.6239178 C138.425277,28.5142707 137.33154,29.034632 136.177266,28.986055 C135.368092,29.0626619 134.561075,28.8241412 133.955724,28.3294595 C133.350373,27.8347778 133.003188,27.1301061 133,26.3896519 L133,26.3896519 Z M139.127124,25.6483371 L139.127124,24.9230327 L136.799476,25.0584951 C135.48681,25.1384508 134.891461,25.5448571 134.891461,26.3096769 C134.891461,27.0904879 135.635642,27.5448676 136.658984,27.5448676 C137.264781,27.6006822 137.869529,27.4303383 138.334788,27.0728313 C138.800046,26.7153243 139.085977,26.2012667 139.127124,25.6483371 Z"  fill="#FFFFFF"></path>
            <path d="M143,25.2222411 C143,22.3028904 144.391555,20.453493 146.555966,20.453493 C147.648885,20.3991831 148.672506,21.0307623 149.182998,22.0743856 L149.30934,22.0743856 L149.30934,17.00013 L151,17.00013 L151,29.8456834 L149.37994,29.8456834 L149.37994,28.3859978 L149.246178,28.3859978 C148.697098,29.4209623 147.660866,30.0418657 146.555985,29.9979447 C144.376697,29.9980473 143,28.1486088 143,25.2222411 Z M144.746459,25.2222411 C144.746459,27.1818387 145.602947,28.3610073 147.035367,28.3610073 C148.46031,28.3610073 149.340978,27.1648296 149.340978,25.2302635 C149.340978,23.3047251 148.451064,22.0914973 147.035367,22.0914973 C145.612174,22.0914973 144.746402,23.2786678 144.746402,25.2222411 L144.746459,25.2222411 Z"  fill="#FFFFFF"></path>
            <path d="M158.021256,24.496288 C157.858406,22.9430652 158.674662,21.4398808 160.127688,20.617166 C161.580714,19.7944513 163.419286,19.7944513 164.872312,20.617166 C166.325338,21.4398808 167.141594,22.9430652 166.978744,24.496288 C167.144692,26.0511798 166.329181,27.5572798 164.874867,28.3817656 C163.420553,29.2062515 161.579447,29.2062515 160.125133,28.3817656 C158.670819,27.5572798 157.855308,26.0511798 158.021256,24.496288 L158.021256,24.496288 Z M165.050881,24.496288 C165.050881,22.6179259 164.126083,21.5194708 162.50309,21.5194708 C160.873896,21.5194708 159.957408,22.6179259 159.957408,24.4963072 C159.957408,26.3897182 160.873959,27.4797059 162.50309,27.4797059 C164.126104,27.4797059 165.050881,26.3821745 165.050881,24.496288 Z"  fill="#FFFFFF"></path>
            <path d="M169,20.1791335 L170.782227,20.1791335 L170.782227,21.5804263 L170.920581,21.5804263 C171.401694,20.5487042 172.525918,19.9175897 173.720056,20.008862 C174.644673,19.9434954 175.550733,20.2770219 176.182409,20.9152703 C176.814085,21.5535187 177.102829,22.4272273 176.967114,23.2897046 L176.967114,29.0000321 L175.115721,29.0000321 L175.115721,23.726863 C175.115721,22.3093109 174.460618,21.6043451 173.09139,21.6043451 C172.464237,21.5768789 171.855601,21.8083156 171.425048,22.2379794 C170.994495,22.6676433 170.784966,23.2526825 170.851393,23.8397179 L170.851393,29.00013 L169,29.00013 L169,20.1791335 Z"  fill="#FFFFFF"></path>
            <path d="M187.10938,18.00013 L187.10938,20.223139 L189,20.223139 L189,21.6807521 L187.10938,21.6807521 L187.10938,26.1895308 C187.10938,27.1080214 187.485997,27.5102116 188.343296,27.5102116 C188.562776,27.5095058 188.782037,27.4961711 189,27.470273 L189,28.9117042 C188.690726,28.9673003 188.377375,28.9968781 188.063207,29.00013 C186.147995,29.00013 185.385306,28.3231404 185.385306,26.6325943 L185.385306,21.6806742 L184,21.6806742 L184,20.2230611 L185.385306,20.2230611 L185.385306,18.00013 L187.10938,18.00013 Z"  fill="#FFFFFF"></path>
            <path d="M191,17.00013 L192.812391,17.00013 L192.812391,22.1526836 L192.957055,22.1526836 C193.455033,21.0495157 194.584762,20.3796992 195.782035,20.4777533 C196.690014,20.4278926 197.572736,20.7892045 198.189769,21.4632758 C198.806802,22.1373471 199.093877,23.0539691 198.972802,23.9634746 L198.972802,30.00013 L197.142511,30.00013 L197.142511,24.4186901 C197.142511,22.9252396 196.453241,22.1688798 195.161342,22.1688798 C194.525215,22.1162291 193.898494,22.3496141 193.448726,22.8066413 C192.998958,23.2636685 192.772005,23.8977356 192.828542,24.5393306 L192.828542,30.00013 L191.000082,30.00013 L191,17.00013 Z"  fill="#FFFFFF"></path>
            <path d="M209.895307,26.4782907 C209.409571,28.1090734 207.807383,29.1627403 206.09202,28.9794926 C204.92163,29.0099245 203.79682,28.5320834 203.016029,27.672752 C202.235237,26.8134207 201.8774,25.6594735 202.037458,24.5170803 C201.881651,23.3715122 202.238148,22.215716 203.014591,21.3491248 C203.791035,20.4825335 204.911022,19.9904196 206.084399,20.0002753 C208.526652,20.0002753 210,21.6437691 210,24.358606 L210,24.9539693 L203.802041,24.9539693 L203.802041,25.0495838 C203.747194,25.6911227 203.969638,26.3256872 204.414667,26.7972182 C204.859697,27.2687492 205.486019,27.5334943 206.139601,27.5263445 C206.987073,27.6265567 207.812029,27.2124929 208.227796,26.4782331 L209.895307,26.4782907 Z M203.802002,23.6920886 L208.235359,23.6920886 C208.279515,23.1053467 208.070061,22.5275216 207.658613,22.1010081 C207.247166,21.6744946 206.67199,21.4389587 206.074828,21.4524442 C205.469575,21.4449542 204.886903,21.6785422 204.458984,22.1002205 C204.031066,22.5218989 203.794172,23.095926 203.802041,23.6920886 L203.802002,23.6920886 Z"  fill="#FFFFFF"></path>
        </g>
    </g>
</svg>