<?xml version="1.0" encoding="UTF-8"?>
<svg width="256px" height="256px" viewBox="0 0 256 256" version="1.1" xmlns="http://www.w3.org/2000/svg" xmlns:xlink="http://www.w3.org/1999/xlink">
    <title>cateye</title>
    <g id="cateye" stroke="none" stroke-width="1" fill="none" fill-rule="evenodd">
        <path d="M228.5,133 C231.25,133 234,135.291667 234,138.5 C234,141.708333 231.25,144 228.5,144 C225.75,144 223,141.708333 223,138.5 C223,135.291667 225.291667,133 228.5,133 Z M228.958333,133.916667 C226.208333,133.916667 224.375,135.75 224.375,138.5 C224.375,140.791667 226.208333,143.083333 228.958333,143.083333 C231.708333,143.083333 233.541667,141.25 233.541667,138.5 C233.541667,135.75 231.25,133.916667 228.958333,133.916667 Z M121,115 C119.095238,115.474576 118.142857,116.423729 117.666667,118.322034 L117.666667,121.169492 L117.666667,121.169492 L107.666667,121.169492 L107.666667,143 L101,143 L101,121.169492 L91,121.169492 L91,115 L121,115 Z M86.3478261,115 C84.9130435,115.474576 83,116.898305 83.9565217,119.271186 L94,143 L86.826087,143 L84.4347826,136.830508 L71.0434783,136.830508 L68.173913,143 L61,143 L72.9565217,115 L86.3478261,115 Z M169.923077,115 C168.015385,115.474576 167.061538,117.372881 168.015385,118.322034 L173.261538,126.389831 L180.415385,115 L189,115 C187.569231,115.474576 187.092308,115.949153 186.138462,117.372881 L176.123077,132.559322 L176.123077,143 L169.923077,143 L169.923077,133.033898 L158,115 L169.923077,115 Z M156,115 C154.578947,115.474576 153.157895,116.898305 153.157895,118.79661 L153.157895,121.169492 L135.631579,121.169492 L135.631579,126.389831 L155.526316,126.389831 C154.105263,126.864407 152.684211,128.288136 152.684211,130.186441 L152.684211,131.135593 L135.631579,131.135593 L135.631579,136.830508 L156,136.830508 C154.578947,137.305085 153.157895,138.728814 153.157895,140.627119 L153.157895,143 L129,143 L129,115 L156,115 Z M219,115 C217.578947,115.474576 216.157895,116.898305 216.157895,118.79661 L216.157895,121.169492 L198.631579,121.169492 L198.631579,126.389831 L218.526316,126.389831 C217.105263,126.864407 215.684211,128.288136 215.684211,130.186441 L215.684211,131.135593 L198.631579,131.135593 L198.631579,136.830508 L219,136.830508 C217.105263,137.305085 216.157895,138.728814 216.157895,140.627119 L216.157895,143 L192,143 L192,115 L219,115 Z M60.5322581,115 C59.1290323,115.474576 58.1935484,116.898305 58.1935484,118.79661 L58.1935484,121.169492 L46.5,121.169492 C42.2903226,120.694915 38.5483871,124.491525 38.5483871,128.762712 C38.5483871,133.033898 42.2903226,136.830508 46.5,136.830508 L61,136.830508 C59.1290323,137.305085 58.1935484,138.728814 58.1935484,140.627119 L58.1935484,143 L45.5645161,143 C38.0806452,143 32,136.830508 32,128.762712 C32,121.169492 38.0806452,115 45.5645161,115 L60.5322581,115 Z M228.958333,135.291667 C230.333333,135.291667 231.25,135.75 231.25,137.125 C231.25,138.5 230.333333,138.958333 229.416667,138.958333 L229.416667,138.958333 L231.25,141.708333 L230.333333,141.708333 L228.5,138.958333 L227.583333,138.958333 L227.583333,141.708333 L226.666667,141.708333 L226.666667,135.291667 Z M229.03873,136.208491 L227.583333,136.208333 L227.583333,138.041667 L229.03873,138.041509 C229.515689,138.038837 230.333333,137.990741 230.333333,137.125 C230.333333,136.208333 229.416667,136.208333 228.958333,136.208333 Z M77.2608696,120.694915 L73.4347826,130.661017 L82.0434783,130.661017 L77.2608696,120.694915 Z" fill="#FF375F" fill-rule="nonzero"></path>
    </g>
</svg>