<?xml version="1.0" encoding="UTF-8"?>
<svg width="256px" height="256px" viewBox="0 0 256 256" version="1.1" xmlns="http://www.w3.org/2000/svg" xmlns:xlink="http://www.w3.org/1999/xlink">
    <title>favero</title>
    <g id="favero" stroke="none" stroke-width="1" fill="none" fill-rule="evenodd">
        <path d="M88,146 L88,148.641706 L84.1989002,148.641706 L84.1989002,150.647009 L87.8042688,150.647009 L87.8042688,153.288078 L84.1989002,153.288078 L84.1989002,155.357022 L88,155.357022 L88,158 L81,158 L81,146 L88,146 Z M97.1833534,146 L97.1833534,155.357022 L101,155.357022 L101,158 L94,158 L94,146 L97.1833534,146 Z M114,146 L114,148.641706 L110.198844,148.641706 L110.198844,150.647009 L113.804885,150.647009 L113.804885,153.288078 L110.198844,153.288078 L110.198844,155.357022 L114,155.357022 L114,158 L107,158 L107,146 L114,146 Z M47.0844841,122 C47.1796934,123.063413 47.2218051,123.963984 47.3463095,124.854069 C48.2446941,131.303017 51.7064042,136.26109 56.2996395,140.571492 C58.5272915,142.663777 61.2242761,144.222504 62.9746613,146.868701 C65.2432044,150.295187 66.8141568,154.023302 68,158 C65.3249867,155.416719 62.6292227,152.879084 59.5776446,150.759043 C56.9191098,148.914723 54.1165406,147.404109 50.9709739,146.567688 C48.8263249,145.995888 47.4842409,144.377945 46.3850624,142.561383 C42.969126,136.903209 43.2401061,127.774138 47.0844841,122 Z M143,146 L143,148.641706 L140.507229,148.641706 L140.507229,158 L137.492156,158 L137.492156,148.641706 L135,148.641706 L135,146 L143,146 Z M186.122677,146 L191.844822,153.337081 L191.876049,153.337081 L191.876049,146 L195,146 L195,158 L191.876049,158 L186.155178,150.647009 L186.122677,150.647009 L186.122677,158 L183,158 L183,146 L186.122677,146 Z M217.207262,146 C217.706812,146 218.181415,146.050164 218.633567,146.151095 C219.086966,146.252027 219.540988,146.392848 219.998753,146.573558 L219.998,150.124 L219.861399,149.955347 C219.574284,149.626106 219.227734,149.370637 218.822535,149.189323 C218.349803,148.977789 217.847758,148.871418 217.317026,148.871418 C216.849283,148.871418 216.422077,148.952405 216.037905,149.11317 C215.653732,149.275145 215.323193,149.498766 215.04816,149.786452 C214.773127,150.073533 214.559836,150.408965 214.408911,150.792143 C214.257986,151.174112 214.183147,151.588114 214.183147,152.030521 C214.183147,152.483808 214.257986,152.899622 214.408911,153.277361 C214.559836,153.655099 214.774375,153.980257 215.055644,154.251624 C215.336914,154.5242 215.671818,154.738152 216.062227,154.894082 C216.451389,155.050617 216.886079,155.128582 217.3638,155.128582 C217.86335,155.128582 218.347308,155.020398 218.815051,154.803425 C219.282794,154.587056 219.676945,154.292118 219.999376,153.919819 L219.999376,157.471166 C219.489848,157.622261 219.03146,157.747973 218.626706,157.849509 C218.221953,157.949232 217.77978,158 217.300811,158 C216.479454,158 215.692398,157.856762 214.938397,157.569076 C214.185018,157.282599 213.500866,156.86618 212.888435,156.322236 C212.232971,155.748074 211.754625,155.100781 211.453399,154.379753 C211.152796,153.659935 211,152.871216 211,152.014807 C211,151.229111 211.14843,150.478469 211.445915,149.761672 C211.741529,149.046688 212.169981,148.407857 212.731897,147.843364 C213.314393,147.269202 213.99605,146.818333 214.781858,146.490758 C215.567043,146.163183 216.375927,146 217.207262,146 Z M153.672534,146 C154.267521,146 154.821057,146.071277 155.331229,146.214468 C155.842038,146.357658 156.282699,146.580399 156.655762,146.883326 C157.027549,147.185617 157.32026,147.570004 157.531981,148.036487 C157.74434,148.503606 157.850839,149.055367 157.850839,149.692406 C157.850839,150.106067 157.795995,150.501273 157.683757,150.877387 C157.572157,151.254773 157.405076,151.593975 157.179963,151.896266 C156.958038,152.198557 156.680633,152.453755 156.351572,152.660585 C156.022511,152.867416 155.644984,153.007425 155.219629,153.08252 L159,158 L155.108029,158 L152.1586,153.384811 L152.126076,153.384811 L152.126076,158 L149,158 L149,146 L153.672534,146 Z M230.688011,146 C230.989734,146 231.310194,146.022363 231.64939,146.067694 C231.988586,146.113025 232.321967,146.175884 232.652118,146.256875 C232.979038,146.336658 233.303374,146.435177 233.619957,146.551224 C233.937832,146.667271 234.231156,146.796011 234.50122,146.936235 L233.238765,149.234814 C232.94738,149.00272 232.621752,148.819583 232.260589,148.682381 C231.89878,148.546389 231.526633,148.479299 231.138981,148.479299 C230.987796,148.479299 230.833381,148.499244 230.67832,148.539136 C230.521967,148.580236 230.375305,148.640073 230.240273,148.720459 C230.107179,148.801451 229.996052,148.899365 229.909476,149.015413 C229.8229,149.13146 229.781551,149.26987 229.781551,149.430644 C229.781551,149.602901 229.828069,149.745542 229.92692,149.860985 C230.023187,149.977032 230.141421,150.077969 230.281622,150.163796 C230.423116,150.249622 230.573008,150.31913 230.73453,150.374736 C230.896052,150.430341 231.045944,150.47809 231.186791,150.518586 L231.994401,150.744636 C232.414358,150.866123 232.807825,151.009973 233.17351,151.175582 C233.539842,151.341795 233.858363,151.545482 234.127782,151.788456 C234.3972,152.029616 234.609763,152.319734 234.764824,152.6576 C234.921177,152.994862 235,153.396192 235,153.858568 C235,154.422484 234.91084,154.979148 234.733166,155.529163 C234.554846,156.077969 234.224049,156.543971 233.739483,156.927168 C233.254917,157.309761 232.710266,157.584164 232.108112,157.750378 C231.503374,157.917196 230.896052,158 230.281622,158 C229.506963,158 228.755564,157.886975 228.028069,157.66032 C227.300574,157.433061 226.624767,157.113932 226,156.700514 L227.35743,154.311877 C227.756712,154.634633 228.187006,154.911454 228.650251,155.143548 C229.114142,155.375038 229.620675,155.491085 230.169203,155.491085 C230.352046,155.491085 230.534889,155.468117 230.718378,155.423391 C230.901866,155.37806 231.065973,155.309761 231.212635,155.219099 C231.357358,155.128438 231.475592,155.010577 231.567337,154.863705 C231.659081,154.718042 231.704953,154.544575 231.704953,154.343306 C231.704953,154.131762 231.63776,153.955273 231.502728,153.813841 C231.368342,153.673013 231.202297,153.552131 231.003302,153.450589 C230.803015,153.350861 230.593683,153.26987 230.372075,153.209429 C230.150467,153.148988 229.954702,153.093986 229.783489,153.042611 C229.287294,152.912058 228.836971,152.773648 228.433812,152.62738 C228.029361,152.481112 227.681766,152.291931 227.392319,152.060441 C227.100933,151.828347 226.876741,151.53702 226.720388,151.183439 C226.564681,150.830462 226.48715,150.377153 226.48715,149.822907 C226.48715,149.248716 226.592462,148.725295 226.801795,148.251435 C227.011773,147.777576 227.301866,147.375038 227.674659,147.042611 C228.046159,146.70958 228.488083,146.452705 228.999139,146.271381 C229.511486,146.090662 230.073582,146 230.688011,146 Z M170.501247,146 C171.343274,146 172.155384,146.14204 172.940694,146.425523 C173.724758,146.709007 174.417825,147.107077 175.019896,147.619734 C175.622591,148.132392 176.104996,148.743522 176.461502,149.455513 C176.821124,150.166907 177,150.945143 177,151.791416 C177,152.706918 176.839198,153.541851 176.516349,154.298602 C176.194745,155.055354 175.74475,155.708261 175.16761,156.261501 C174.591092,156.812951 173.905504,157.240861 173.111468,157.544636 C172.316186,157.848411 171.445489,158 170.500623,158 C169.554511,158 168.684438,157.848411 167.889779,157.544636 C167.094496,157.240861 166.408908,156.812951 165.83239,156.261501 C165.25712,155.708858 164.806501,155.055354 164.484898,154.298602 C164.162048,153.541851 164,152.706918 164,151.791416 C164,150.94574 164.180746,150.166907 164.538498,149.455513 C164.896874,148.743522 165.378032,148.132392 165.980104,147.619734 C166.582798,147.107077 167.275865,146.709007 168.061176,146.425523 C168.845862,146.14204 169.659843,146 170.501247,146 Z M205,146 L205,158 L202,158 L202,146 L205,146 Z M126.207069,146 C126.706029,146 127.181913,146.050164 127.634719,146.151095 C128.086902,146.252027 128.54158,146.392848 128.999376,146.573558 L128.999,150.125 L128.861388,149.955347 C128.574242,149.626106 128.227591,149.370637 127.82183,149.189323 C127.349064,148.977789 126.847609,148.871418 126.317464,148.871418 C125.849064,148.871418 125.422453,148.952405 125.03763,149.11317 C124.65343,149.275145 124.322245,149.498766 124.047193,149.786452 C123.772141,150.073533 123.558836,150.408965 123.408524,150.792143 C123.257588,151.174112 123.182121,151.588114 123.182121,152.030521 C123.182121,152.483808 123.257588,152.899622 123.408524,153.277361 C123.558836,153.655704 123.774636,153.980257 124.055301,154.251624 C124.335967,154.5242 124.670894,154.738152 125.061954,154.894082 C125.451767,155.050617 125.885863,155.128582 126.363617,155.128582 C126.862578,155.128582 127.34657,155.020398 127.814345,154.803425 C128.282121,154.587056 128.676923,154.292118 128.999376,153.919819 L128.999376,157.471166 C128.489189,157.622261 128.032017,157.747973 127.626611,157.849509 C127.220582,157.949232 126.779002,158 126.301247,158 C125.479834,158 124.691476,157.856762 123.938046,157.569076 C123.183992,157.282599 122.50104,156.86618 121.886694,156.322236 C121.231185,155.748074 120.75343,155.100781 120.451559,154.379753 C120.150312,153.659935 120,152.871216 120,152.014807 C120,151.229111 120.147817,150.478469 120.444075,149.761672 C120.740333,149.046688 121.170062,148.407857 121.730769,147.843364 C122.312682,147.269202 122.996881,146.818333 123.782121,146.490758 C124.56736,146.163183 125.375676,146 126.207069,146 Z M170.501247,148.83543 C170.043772,148.83543 169.614345,148.918387 169.215457,149.083105 C168.814076,149.246631 168.464426,149.465659 168.162767,149.738996 C167.862355,150.012931 167.623022,150.328642 167.446016,150.687323 C167.269633,151.045407 167.18113,151.418411 167.18113,151.806933 C167.18113,152.294524 167.269633,152.74213 167.446016,153.149749 C167.623022,153.557368 167.861732,153.910081 168.162767,154.209081 C168.464426,154.507485 168.814076,154.741433 169.215457,154.91033 C169.614345,155.079823 170.043772,155.163973 170.501247,155.163973 C170.958721,155.163973 171.386902,155.079226 171.787036,154.91033 C172.18717,154.741433 172.538067,154.507485 172.838479,154.209081 C173.140138,153.910081 173.378224,153.557368 173.555231,153.149749 C173.731614,152.74213 173.820117,152.294524 173.820117,151.806933 C173.820117,151.418411 173.731614,151.045407 173.555231,150.687323 C173.378224,150.328642 173.140138,150.012931 172.838479,149.738996 C172.538067,149.465659 172.18717,149.246631 171.787036,149.083105 C171.386902,148.91779 170.958721,148.83543 170.501247,148.83543 Z M51,109.016402 C37.8734723,124.16384 36.3260844,137.447554 45.9056288,154 C42.8321187,151.44851 40.4509927,148.818418 38.5433399,145.78672 C33.6885199,138.070228 32.3237663,130.027661 36.4230307,121.563223 C39.3420523,115.532987 44.1799849,111.516309 50.4145695,109.024385 C50.539036,108.974645 50.7022811,109.016402 51,109.016402 Z M152.429628,148.387145 L152.126714,148.387145 L152.126714,151.378871 L152.429628,151.378871 C152.684076,151.378871 152.940437,151.362961 153.195523,151.331141 C153.450609,151.299958 153.681462,151.229953 153.888719,151.124311 C154.097251,151.018031 154.266246,150.86784 154.399528,150.671192 C154.532173,150.475817 154.599133,150.21171 154.599133,149.883326 C154.599133,149.554943 154.53281,149.292109 154.399528,149.096097 C154.266246,148.900085 154.096614,148.748621 153.888719,148.642342 C153.681462,148.536699 153.450609,148.467331 153.195523,148.434875 C152.941075,148.403691 152.684714,148.387145 152.429628,148.387145 Z M206,111.140112 L206,117.485083 C201.674402,116.716994 198.792718,119.019428 198.792718,122.754242 L198.792718,138 L192,138 L192,122.754242 C192,115.284003 197.197719,110.066132 206,111.140112 Z M221.472375,110 C228.912538,110 235,116.067801 235,124.051978 C235,132.036155 228.912538,138 221.472375,138 C214.033454,138 208,132.036773 208,124.051978 C208,116.067182 214.032833,110 221.472375,110 Z M118.524664,110 C126.434352,110 131.999391,116.338699 132,124.0778 L132,124.0778 L132,137.427812 L125.26081,137.427812 L125.26081,124.176368 C125.26081,124.16149 125.262637,124.145992 125.262637,124.131113 C125.262637,124.115615 125.26081,124.100737 125.26081,124.084619 L125.26081,124.084619 L125.26081,124.00093 C125.196865,119.800961 122.211548,116.442226 118.524664,116.442226 C114.800023,116.442226 111.789737,119.714172 111.789737,124.131113 C111.789737,128.390595 114.800023,131.662541 118.524664,131.662541 C119.726221,131.662541 120.850434,131.309806 121.826661,130.693604 L121.826661,130.693604 L121.826661,137.230057 C120.528273,137.736533 119.103214,138 117.606902,138 C110.666133,138 105,131.767928 105,124.0778 C105,116.338699 110.565648,110 118.524664,110 Z M140.277974,111 L147.027373,131.150291 L153.829629,111 L161,111 L152.790727,132.688032 C151.709037,135.538112 150.200081,138 147.000315,138 C143.822572,138 142.385981,135.663335 141.252062,132.688032 L133,111 L140.277974,111 Z M174.786677,110 C181.264957,110 186.696242,114.044994 188,121.201856 L168.99206,129.134674 C170.348791,130.94895 172.384198,131.987271 174.734951,131.987271 C176.981004,131.987271 179.27816,131.002166 180.426115,128.875403 L187.791847,128.875403 L187.791847,128.874785 C186.225095,134.318232 181.471863,138 174.786677,138 C167.162935,138 161,131.778122 161,124.051978 C161,116.327072 167.162935,110 174.786677,110 Z M103,102 L103,108.742649 L94.2081818,108.742649 C89.7557936,108.742649 87.7530737,111.683117 87.7530737,115.004299 L87.7530737,117.59934 L100.33968,117.59934 L100.33968,123.979847 L87.7536843,123.979847 L87.7536843,138 L81,138 L81,114.460158 C81,107.56089 86.2412645,102 93.5066193,102 L103,102 Z M64.0163121,96.0028612 C65.0938693,96.0128396 65.1613326,96.372685 64.8103993,97.2539008 C64.2131319,98.7519054 63.7817376,100.312899 63.5434496,101.90944 C63.4010957,102.858633 62.9981722,103.211619 62.0128356,103.318886 C55.7257445,104.003653 49.8291983,105.981243 44.2148841,108.895554 C34.2191643,114.081195 28.8771793,122.265963 28.4228847,133.621361 C28.3640864,135.079452 28.4148386,136.540662 28.4148386,138 C25.0515729,127.503366 27.4994411,113.649006 37.7532547,104.929771 C45.3871375,98.4363391 54.227315,95.9024537 64.0163121,96.0028612 Z M52.167046,112.142104 C55.3922726,107.454339 63.0004367,103.913536 69.7989359,107.413267 C70.0975227,107.568361 70.3802338,107.752267 71,108.117627 C69.0423937,108.357318 67.4896199,108.595783 65.927687,108.720839 C64.7589851,108.813405 64.4616194,109.256618 64.7113577,110.432391 C66.4448712,118.60027 67.2429347,124.183043 67.3925334,132.532989 C67.4279486,134.501396 67.3168181,135.109512 65.2975405,136.829033 C64.9586536,137.117153 64.4237618,137.002518 63.5292224,136.76957 C62.5180571,136.507811 62.4942435,136.27425 62.5662951,135.670425 C62.7238317,134.362854 63.2428477,132.723638 61.7950984,132.294524 C60.9903182,132.056672 60.5189296,132.631685 60.3827642,133.51566 C60.2807928,134.177109 60.2539261,134.866143 60.1782108,135.597476 C58.0624573,134.908442 57.3407197,133.98462 57.6942612,132.005179 C57.9897951,130.354929 57.5116897,129.103755 56.3722969,127.983767 C55.2072586,126.841711 54.0275658,125.70885 52.9303049,124.502426 C49.2697154,120.479176 49.0657727,116.650253 52.167046,112.142104 Z M221.472996,116.273856 C217.832686,116.273856 214.867174,119.488442 214.867174,124.104575 C214.867174,128.616133 217.832065,131.728 221.472996,131.728 C225.113926,131.728 228.081921,128.616133 228.081921,124.104575 C228.081921,119.489061 225.114547,116.273856 221.472996,116.273856 Z M174.735574,116.015204 C170.765096,116.015204 167.580487,119.125834 167.423437,123.689989 L180.062783,118.400619 C178.808882,116.896972 176.930523,116.015204 174.735574,116.015204 Z M58.9698194,113.685688 C59.9272513,115.052723 60.7540133,116.207039 61.9862184,116.986188 C62.5803391,117.36013 63.2886433,117.753076 63.8388002,117.023582 C64.4194876,116.256081 63.9242852,115.53333 63.3142888,115.112186 C62.0979595,114.269896 60.7204299,113.790514 58.9698194,113.685688 Z" fill="#FF375F" fill-rule="nonzero"></path>
    </g>
</svg>