<?xml version="1.0" encoding="UTF-8"?>
<svg width="256px" height="256px" viewBox="0 0 256 256" version="1.1" xmlns="http://www.w3.org/2000/svg" xmlns:xlink="http://www.w3.org/1999/xlink">
    <title>lezyne</title>
    <g id="lezyne" stroke="none" stroke-width="1" fill="none" fill-rule="evenodd">
        <path d="M133.873033,136.745318 C137.473472,136.745318 137.473472,141 133.873033,141 L31.8005854,141 C28.6201976,141 27,140.340824 27,137.82397 L27,111.456929 C27,109.958801 27.9001098,109 31.6805708,109 C35.4610318,109 36.3611416,109.659176 36.3611416,111.456929 L36.3611416,133.868914 C36.3611416,136.685393 38.4013904,136.745318 41.0417124,136.745318 L57.9037688,136.745318 C59.1039151,136.745318 60.1840468,136.625468 61.9242591,137.58427 C62.7043542,138.003745 65.4046835,140.220974 65.4046835,138.962547 L65.4046835,119.187266 C65.4046835,116.250936 65.6447128,114.992509 69.6652031,114.992509 L132.61288,114.992509 C134.593121,114.992509 136.573363,114.992509 138.073546,116.370787 L149.894987,127.576779 C150.315038,127.876404 150.675082,127.876404 151.095134,127.576779 L162.916575,116.430712 C164.356751,115.052434 166.096963,115.052434 168.197219,115.052434 L172.937797,115.052434 C174.43798,115.052434 175.818149,115.23221 176.658251,115.771536 L201.921332,130.692884 C203.361508,131.59176 204.081595,131.292135 204.081595,128.715356 L204.081595,117.808989 C204.081595,116.191011 205.341749,115.052434 206.961947,115.052434 L229.344676,115.052434 C232.885108,115.052434 232.885108,119.367041 229.344676,119.367041 L214.822905,119.367041 C213.622759,119.367041 213.38273,119.606742 213.38273,120.805243 L213.38273,126.378277 C213.38273,127.576779 213.622759,127.816479 214.822905,127.816479 L226.824369,127.816479 C230.424808,127.816479 230.484815,132.071161 226.824369,132.071161 L214.822905,132.071161 C213.622759,132.071161 213.38273,132.310861 213.38273,133.569288 L213.38273,135.546816 C213.38273,136.505618 213.622759,136.745318 214.822905,136.745318 L229.344676,136.745318 C232.885108,136.745318 232.885108,141 229.344676,141 L209.602269,141 C207.862056,141 206.66191,140.520599 205.401756,139.801498 L180.198683,124.940075 C179.838639,124.700375 177.79839,123.501873 177.79839,126.917603 L177.79839,139.202247 C177.79839,140.400749 177.79839,141 176.598244,141 L169.877424,141 C168.677278,141 168.677278,140.400749 168.677278,139.202247 L168.677278,123.681648 C168.677278,122.543071 168.137212,121.104869 166.397,122.782772 L156.31577,132.850187 C155.595682,133.569288 155.115624,134.40824 155.115624,135.187266 L155.115624,139.202247 C155.115624,140.400749 155.115624,141 153.915477,141 L147.254665,141 C146.054519,141 146.054519,140.400749 146.054519,139.202247 L146.054519,135.187266 C146.054519,134.40824 145.57446,133.569288 144.854372,132.850187 L134.533114,122.543071 C133.152945,121.164794 132.072814,121.644195 131.472741,122.123596 L117.431028,133.868914 C116.890962,134.28839 116.170874,134.947566 116.530918,135.846442 C116.890962,136.685393 118.151116,136.685393 120.07135,136.685393 L133.873033,136.685393 L133.873033,136.745318 Z M117.608519,122.687285 C118.393714,122.103093 119.239308,121.343643 118.93731,120.701031 C118.635312,120 117.729318,120 115.494532,120 L75.4495906,120 C74.2415984,120 74,120.233677 74,121.402062 L74,126.893471 C74,128.061856 74.2415984,128.295533 75.4495906,128.295533 L87.4691131,128.295533 C91.0930897,128.295533 91.0930897,132.443299 87.4691131,132.443299 L75.4495906,132.443299 C74.2415984,132.443299 74,132.676976 74,133.845361 L74,135.831615 C74,136.766323 74.2415984,137 75.4495906,137 L97.0726511,137 C98.8846394,137 100.515429,136.474227 102.871014,134.546392 L117.608519,122.687285 Z" fill="#FF375F" fill-rule="nonzero"></path>
    </g>
</svg>