<?xml version="1.0" encoding="UTF-8"?>
<svg width="256px" height="256px" viewBox="0 0 256 256" version="1.1" xmlns="http://www.w3.org/2000/svg" xmlns:xlink="http://www.w3.org/1999/xlink">
    <title>polar</title>
    <g id="polar" stroke="none" stroke-width="1" fill="none" fill-rule="evenodd">
        <path d="M104.945378,124 C105.774596,134.959397 97.0497835,144.655677 86.4502184,144.990032 C75.2738061,145.361537 67.1618939,135.293752 69.3611235,124 L104.945378,124 L104.945378,124 Z M236.017467,136 C238.218341,136 240,137.781659 240,140.017467 C240,142.218341 238.218341,144 236.017467,144 C233.781659,144 232,142.218341 232,140.017467 C232,137.781659 233.816594,136 236.017467,136 Z M54.4347311,110 C61.358468,110 66.569491,115.648562 65.9499988,122.528222 C65.3305065,129.082002 59.5728727,134.332268 52.9406615,134.332268 L40.22285,134.332268 L40.22285,134.332268 C39.056747,134.332268 38.0364068,135.056443 37.6719996,136.106496 C36.9067445,138.315229 36.1414893,140.56017 35.3762342,142.768903 C35.1211492,143.493078 34.4287755,144 33.6635203,144 L24.2982551,144 L24.2982551,144 C22.621982,144 21.6016418,142.443024 22.1482526,140.886049 C23.4601186,137.084132 24.7719845,133.318424 26.0838505,129.516507 C26.9584278,126.619808 29.7643632,124.592119 32.8618245,124.592119 L52.1754064,124.592119 L52.1754064,124.592119 C53.523713,124.592119 54.6533754,123.505857 54.7991383,122.202343 C54.9449012,120.826411 53.8881203,119.70394 52.5033729,119.70394 L29.3635153,119.70394 L29.3635153,119.70394 L32.3152137,111.231097 L32.3152137,111.231097 C32.5702987,110.506922 33.2626724,110 34.0643683,110 L54.4347311,110 L54.4347311,110 Z M218.453856,110 C225.366143,110 230.568549,115.642553 229.950081,122.514894 C229.513516,127.144681 226.530318,131.087234 222.492087,133.040426 C223.47436,136.693617 224.456632,140.310638 225.438904,144 L211.577949,144 L211.577949,144 L209.395121,135.970213 L209.395121,135.970213 C209.140458,134.957447 208.267327,134.306383 207.212294,134.306383 L204.229096,134.306383 L204.229096,134.306383 C203.064921,134.306383 202.046269,135.029787 201.682464,136.078723 C200.918474,138.285106 200.154485,140.52766 199.390495,142.734043 C199.135832,143.457447 198.444603,143.96383 197.644233,143.96383 L188.294455,143.96383 L188.294455,143.96383 C186.620953,143.96383 185.602301,142.408511 186.148007,140.853191 C187.457704,137.055319 188.767401,133.293617 190.077097,129.495745 C191.09575,126.602128 193.860665,124.576596 196.953004,124.576596 L216.234648,124.576596 L216.234648,124.576596 C217.580725,124.576596 218.708519,123.491489 218.854041,122.189362 C218.999563,120.814894 217.94453,119.693617 216.525692,119.693617 L193.424099,119.693617 L193.424099,119.693617 L196.370917,111.229787 L196.370917,111.229787 C196.62558,110.506383 197.316809,110 198.117179,110 L218.453856,110 L218.453856,110 Z M125.664549,125 C125.007931,126.807836 124.387792,128.651119 123.731174,130.458955 C123.183992,131.983209 124.241877,133.507463 125.9199,133.507463 L137.666063,133.507463 L137.666063,133.507463 C139.344087,133.507463 140.401971,135.031716 139.854789,136.55597 C139.125214,138.647388 138.395639,140.703358 137.666063,142.794776 C137.410712,143.503731 136.717615,144 135.915082,144 L108.300655,144 L108.300655,144 C106.622631,144 105.601226,142.475746 106.148407,140.951493 C108.045303,135.634328 109.905721,130.317164 111.802617,125 L125.664549,125 L125.664549,125 Z M180.398038,125 C180.941028,130.671642 181.447819,136.378731 181.990809,142.050373 C182.099407,143.078358 181.230623,144 180.180842,144 L180.180842,144 L169.864031,144 C169.031446,144 168.343659,143.397388 168.27126,142.58209 C168.090264,140.561567 167.873068,138.505597 167.692071,136.485075 C167.583473,135.315299 166.606091,134.5 165.411513,134.5 L165.411513,134.5 L162.660363,134.5 C161.900177,134.5 161.17619,134.81903 160.6694,135.386194 C158.425041,138.044776 156.144483,140.66791 153.900124,143.326493 C153.538131,143.751866 153.03134,144 152.48835,144 L152.48835,144 L144.3073,144 C142.207738,144 141.302755,141.660448 142.605931,140.136194 C146.913652,135.102612 151.185174,130.033582 155.492895,125 L155.492895,125 Z M236.017467,136.524017 C235.383364,136.524017 234.802528,136.699042 234.308865,137.000118 L236.216901,137 C237.087827,137 237.958753,137.195312 237.99834,138.25 C238.037928,139.304688 237.36494,139.65625 236.454427,139.695312 C236.969065,140.476562 237.483702,141.21875 237.99834,142 L237.99834,142 L237.246177,142 C236.731539,141.21875 236.256489,140.476562 235.781439,139.695312 L235.781439,139.695312 L234.6334,139.695312 L234.6334,139.695312 L234.6334,142 L234.6334,142 L234,142 L234,142 L234.000793,137.212927 C233.176845,137.853785 232.663755,138.874359 232.663755,139.982533 C232.663755,141.834061 234.09607,143.441048 236.017467,143.441048 C237.90393,143.441048 239.371179,141.834061 239.371179,139.982533 C239.371179,138.131004 237.938865,136.524017 236.017467,136.524017 Z M236.098139,137.429688 L234.6334,137.429688 L234.6334,137.429688 L234.6334,139.1875 C235.108451,139.1875 235.583501,139.1875 236.098139,139.226562 C236.731539,139.226562 237.36494,139.109375 237.36494,138.328125 C237.36494,137.546875 236.731539,137.429688 236.098139,137.429688 L236.098139,137.429688 Z M87.69967,109.00864 C94.8514851,108.78279 101.349835,112.998654 104,120 L104,120 L71,120 C74.2310231,113.563279 80.6567657,109.196849 87.69967,109.00864 Z M128.369699,110 C129.52897,110 130.276888,111.115242 129.902929,112.230483 C129.005428,114.832714 128.107928,117.39777 127.210427,120 C122.461153,120 117.711878,120 113,119.962825 C114.009688,117.063197 115.019376,114.163569 116.029065,111.263941 C116.290836,110.520446 117.038753,110 117.824066,110 L117.824066,110 Z M168.651261,110.000616 L168.809947,110.00401 L168.809947,110.00401 L177.690941,110.00401 C178.507993,110.00401 179.182948,110.600785 179.253996,111.45865 C179.502664,114.293334 179.751332,117.165316 180,120 L180,120 L160,120 C162.486679,116.866928 164.937833,113.771155 167.424512,110.638084 C167.779751,110.190502 168.277087,109.966711 168.809947,110.00401 Z" fill="#FF375F" fill-rule="nonzero"></path>
    </g>
</svg>