<?xml version="1.0" encoding="UTF-8"?>
<svg width="256px" height="256px" viewBox="0 0 256 256" version="1.1" xmlns="http://www.w3.org/2000/svg" xmlns:xlink="http://www.w3.org/1999/xlink">
    <title>quadlock</title>
    <g id="quadlock" stroke="none" stroke-width="1" fill="none" fill-rule="evenodd">
        <path d="M189.944507,130.194205 L189.944507,135.208126 L168.539169,135.208126 C167.902306,135.208126 167.302078,135.45833 166.848384,135.910946 C166.393281,136.362157 166.14389,136.962365 166.14389,137.59912 L166.14389,137.59912 L166.14389,151.592274 C166.142481,152.226217 166.39469,152.83486 166.845566,153.281854 C167.293624,153.731659 167.903715,153.98608 168.539169,153.984674 L168.539169,153.984674 L189.944507,153.984674 L189.944507,159 L168.539169,159 C164.468604,158.994377 161.12085,155.653169 161.116615,151.592274 L161.116615,151.592274 L161.116615,137.597715 C161.113805,135.63544 161.90002,133.750476 163.297735,132.368731 L163.297735,132.368731 C164.702496,130.967308 166.565177,130.194205 168.53776,130.194205 L168.53776,130.194205 L189.944507,130.194205 Z M197.119071,130.194205 L197.119071,142.099982 L201.633467,142.099982 L214.758185,130.197016 L221,130.197016 L206.208449,144.5964 L221,159 L214.232633,159 L201.627831,147.094223 L197.117662,147.094223 L197.117662,159 L192.108711,159 L192.11012,130.194205 L197.119071,130.194205 Z M151.50451,130.195611 C155.573666,130.201233 158.92142,133.541036 158.925647,137.600526 L158.925647,137.600526 L158.925647,151.595085 C158.920011,155.655981 155.572257,158.995783 151.501692,159 L151.501692,159 L137.475221,159 C133.404657,158.995783 130.056902,155.655981 130.052675,151.595085 L130.052675,151.595085 L130.052675,137.600526 C130.056902,133.53963 133.406066,130.199828 137.47663,130.195611 L137.47663,130.195611 Z M71.0010874,99.016243 C71.5249905,99.2142857 72.1106945,99.1679353 72.5966744,98.8884283 L75.419852,97.2577364 C75.7274519,97.0793575 76.1066847,97.0737393 76.4213075,97.2408817 C82.5143147,100.493838 87.5061421,105.485637 90.7591169,111.57861 C90.9234512,111.900254 90.9136192,112.283698 90.7338347,112.596915 L89.1129656,115.404626 C88.8320524,115.890603 88.7857017,116.474899 88.9837455,117.000204 C91.6720848,124.084795 91.6720848,131.915205 88.9837455,138.999796 C88.7871063,139.523696 88.833457,140.109397 89.1129656,140.595374 L90.7422621,143.418536 C90.9220466,143.727538 90.9276649,144.106769 90.7591169,144.419986 C87.5061421,150.512958 82.5143147,155.504757 76.4213075,158.757714 C76.1066847,158.924856 75.7274519,158.919238 75.419852,158.740859 L72.5966744,157.111572 C72.1106945,156.832065 71.5249905,156.78431 71.0010874,156.983757 C63.9164566,159.672081 56.0860013,159.672081 49.0013706,156.983757 C48.4774675,156.78431 47.8917635,156.83066 47.4057836,157.110167 L44.582606,158.740859 C44.2736015,158.919238 43.8943687,158.924856 43.5797459,158.757714 C37.4867387,155.504757 32.4949113,150.512958 29.2419365,144.419986 C29.0747931,144.105365 29.0804114,143.726134 29.2587913,143.418536 L30.8880878,140.595374 C31.169001,140.109397 31.2167562,139.523696 31.0173079,138.999796 C28.327564,131.915205 28.327564,124.084795 31.0173079,117.000204 C31.2167562,116.474899 31.169001,115.890603 30.8894924,115.404626 L29.2587913,112.581464 C29.0804114,112.272462 29.0747931,111.893231 29.2419365,111.57861 C32.4949113,105.485637 37.4867387,100.493838 43.5797459,97.2408817 C43.8943687,97.0737393 44.2736015,97.0793575 44.582606,97.2577364 L47.4057836,98.8870237 C47.8903589,99.1679353 48.4760629,99.2142857 49.0013706,99.016243 C56.0860013,96.327919 63.9164566,96.327919 71.0010874,99.016243 Z M104.025858,130.194205 L104.025858,151.595085 C104.025858,152.91217 105.100916,153.984674 106.421137,153.984674 L106.421137,153.984674 L106.421137,153.983268 L127.8617,153.984674 L127.864518,158.998594 L106.421137,158.998594 C102.351981,158.992972 99.004227,155.653169 99,151.593679 L99,151.593679 L99,130.194205 L104.025858,130.194205 Z M60.0019313,100.93206 C45.0503265,100.93206 32.9331359,113.050587 32.9331359,128.000702 C32.9331359,142.949413 45.0517311,155.066535 60.0005267,155.066535 C74.9493224,155.066535 87.066513,142.949413 87.066513,128.000702 L87.0679176,128.000702 C87.0679176,113.050587 74.9493224,100.93206 60.0019313,100.93206 Z M151.50451,135.209531 L137.47663,135.209531 C136.155,135.209531 135.078534,136.282035 135.078534,137.600526 L135.078534,137.600526 L135.079943,137.600526 L135.079943,151.595085 C135.081352,152.905142 136.162045,153.983268 137.475221,153.984674 L137.475221,153.984674 L151.501692,153.98608 C152.824731,153.98608 153.899789,152.913576 153.899789,151.595085 L153.899789,151.595085 L153.899789,137.600526 C153.899789,136.282035 152.824731,135.209531 151.50451,135.209531 L151.50451,135.209531 Z M59.4992881,104 C73.0304245,104 84,114.969257 84,128.501424 C84,142.030743 73.0304245,153 59.4992881,153 C45.9695755,152.998576 35,142.030743 35,128.501424 C35,114.969257 45.9695755,104 59.4992881,104 Z M224.569309,130.102475 C226.451697,130.102475 228,131.64724 228,133.525325 L228,133.551935 C227.995789,135.446826 226.432045,137.002793 224.532812,136.999996 L224.517371,136.999996 L224.517371,136.999996 C222.634983,136.999996 221.08668,135.455229 221.08668,133.577144 L221.08668,133.551935 C221.089487,131.657043 222.653231,130.101076 224.552464,130.102475 L224.569309,130.102475 L224.569309,130.102475 Z M224.55106,130.704696 L224.530005,130.704696 L224.530005,130.704696 C222.981702,130.704696 221.708528,131.974959 221.708528,133.519723 L221.708528,133.570141 C221.708528,135.134512 222.921342,136.397773 224.532812,136.397773 L224.556675,136.397773 L224.556675,136.397773 C226.104978,136.397773 227.378152,135.127509 227.378152,133.582746 L227.378152,133.533728 C227.378152,131.969357 226.163934,130.704696 224.55106,130.704696 Z M224.753196,131.616428 C225.250113,131.616428 225.630521,131.760681 225.890209,132.018375 C226.089537,132.218648 226.194816,132.494549 226.194816,132.816666 L226.194816,132.837674 C226.194816,133.42869 225.869153,133.799825 225.401715,133.972088 L226.300095,135.285767 L225.353988,135.285767 L224.572116,134.105136 L223.930616,134.105136 L223.930616,135.285767 L223.119266,135.285767 L223.119266,131.616428 L224.753196,131.616428 Z M224.723718,132.33209 L223.930616,132.33209 L223.930616,133.410483 L224.74337,133.410483 L224.74337,133.409082 C225.153256,133.409082 225.372236,133.190603 225.372236,132.885291 L225.372236,132.865684 C225.372236,132.514156 225.125182,132.33209 224.723718,132.33209 Z M119.540181,113.25433 L129.997894,123.688136 L126.456309,127.221625 L116,116.787819 L119.540181,113.25433 Z M120.447608,97 C124.516763,97.0056226 127.864518,100.345425 127.868745,104.404915 L127.868745,104.404915 L127.868745,119.227396 L122.842886,114.213476 L122.842886,104.404915 C122.842886,103.086424 121.769238,102.01392 120.447608,102.01392 L120.447608,102.01392 L106.422546,102.01392 C105.100916,102.01392 104.025858,103.086424 104.025858,104.40351 L104.025858,104.40351 L104.025858,118.396663 C104.025858,119.713748 105.100916,120.786252 106.421137,120.786252 L106.421137,120.786252 L116.551757,120.786252 L121.587478,125.804389 L106.421137,125.800172 C102.351981,125.79455 99.0056359,122.456153 99,118.396663 L99,118.396663 L99,104.40351 C99.0056359,100.344019 102.35339,97.0042169 106.422546,97 L106.422546,97 Z M182.78478,97 C186.840126,97.0070026 190.173961,100.333216 190.178172,104.377892 L190.178172,104.377892 L190.178172,125.706272 L185.171103,125.706272 L185.171103,113.841144 L166.423021,113.841144 L166.423021,125.728681 L161.415945,125.721678 L161.415945,104.375091 C161.413145,102.419977 162.196421,100.541892 163.587507,99.1651899 C164.988419,97.7688805 166.844137,97 168.809345,97 L168.809345,97 L182.78478,97 Z M135.511706,97.0084031 L135.506091,118.345187 C135.508899,119.650463 136.584148,120.723255 137.892415,120.726056 L137.892415,120.726056 L151.866446,120.727456 C153.181732,120.727456 154.25277,119.658866 154.25277,118.345187 L154.25277,118.345187 L154.251366,118.345187 L154.256981,97.0084031 L159.258435,97.0084031 L159.258435,118.345187 C159.25282,122.389863 155.917582,125.717476 151.863639,125.721678 L151.863639,125.721678 L137.892415,125.721678 C133.837068,125.718877 130.500426,122.391263 130.494811,118.345187 L130.494811,118.345187 L130.494811,97.0084031 L135.511706,97.0084031 Z M213.780318,97.0014005 C217.834261,97.0070026 221.169499,100.334617 221.173718,104.379292 L221.173718,104.379292 L221.173718,118.319978 C221.176518,120.275091 220.393242,122.153176 219.002156,123.529878 C217.601243,124.926188 215.746929,125.696469 213.781722,125.696469 L213.781722,125.696469 L192.41149,125.707673 L192.41149,125.571823 L192.429739,97.0196072 L192.5659,97.0196072 Z M197.419963,101.980217 L197.419963,120.714851 L213.780318,120.700846 C214.414799,120.700846 215.014188,120.452956 215.464782,120.000591 C215.916779,119.549626 216.166642,118.951608 216.166642,118.319978 L216.166642,118.319978 L216.166642,104.379292 C216.166642,103.067013 215.097007,101.997023 213.780318,101.995622 L213.780318,101.995622 L197.419963,101.980217 Z M182.78478,101.994222 L168.810748,101.994222 C168.177671,101.994222 167.56986,102.246314 167.124881,102.694477 C166.672883,103.145442 166.423021,103.74346 166.423021,104.375091 L166.423021,104.375091 L166.423021,108.849723 L185.171103,108.849723 L185.171103,104.375091 C185.171103,103.062812 184.101469,101.994222 182.78478,101.994222 L182.78478,101.994222 Z" fill="#FF375F"></path>
    </g>
</svg>