<?xml version="1.0" encoding="UTF-8"?>
<svg width="256px" height="256px" viewBox="0 0 256 256" version="1.1" xmlns="http://www.w3.org/2000/svg" xmlns:xlink="http://www.w3.org/1999/xlink">
    <title>sram</title>
    <g id="sram" stroke="none" stroke-width="1" fill="none" fill-rule="evenodd">
        <path d="M39.0817271,115 L70,115.007845 L68.4856007,120.523854 L45.3032179,120.523854 L44.0259128,125.378035 L67.2214147,125.378035 C67.2214147,125.378035 66.1485013,129.178531 65.1503097,133.032027 C63.6948512,138.484704 60.7092125,141 54.7314706,141 L54.7314706,141 L25,141 L26.4843585,135.507907 L50.3375261,135.507907 L51.7956464,129.916894 L27.9422887,129.936602 C27.9422887,129.936602 28.1833757,129.150787 28.7193571,127.096992 C29.0167231,125.951467 29.3703682,124.621303 29.7226823,123.210587 C30.7026213,119.300456 32.5746584,115.328332 39.0817271,115 L39.0817271,115 Z M128.031966,115.000331 C128.239124,115.001241 128.432772,115.003716 128.610535,115.003716 L161,115.003716 C160.955692,115.165193 160.916814,115.307173 160.877931,115.449946 L160.838845,115.593735 C160.825682,115.642254 160.812317,115.691612 160.798549,115.742562 L160.770415,115.846807 C160.372155,117.324365 159.562667,120.403487 154.0795,141 L154.0795,141 L139.722818,141 L142.100397,132.174754 L130.67365,132.174754 C130.67365,132.174754 130.65307,132.260605 130.615167,132.4139 L130.561576,132.629049 C130.243885,133.895744 129.310367,137.471977 128.537191,138.970936 C127.603689,140.809861 124.894871,140.94449 122.094927,140.950715 L120.474384,140.950008 C120.390338,140.949981 120.305965,140.949947 120.221349,140.949907 L119.199579,140.949157 C119.114343,140.949074 119.029196,140.948987 118.94422,140.948895 L118.437086,140.948298 C118.353128,140.948191 118.269507,140.94808 118.186307,140.947967 L117.692815,140.947253 C117.611628,140.947129 117.531028,140.947002 117.451097,140.946874 L116.98021,140.946084 C116.749447,140.945681 116.526202,140.945268 116.312716,140.944854 L115.899419,140.94403 C115.699941,140.943621 115.511715,140.943219 115.336983,140.942834 L115.006173,140.94209 C114.954257,140.941971 114.904007,140.941855 114.855506,140.941741 L114.586138,140.9411 C114.544961,140.941001 114.505698,140.940905 114.468432,140.940813 L114.189205,140.940112 C114.164669,140.940049 114.14238,140.939991 114.122419,140.93994 L114,140.939616 C114,140.939616 115.495354,135.25292 116.892698,129.98175 L117.07829,129.281926 C117.848003,126.380715 118.56561,123.69146 118.957899,122.260495 C121.183736,115.436237 125.296555,115.011518 127.777043,115.000248 Z M217.880046,115.045155 C220.876952,115.110429 225.193911,118.091822 223.691578,123.968523 C221.912515,130.912682 220.717955,136.750219 219.611978,140.973891 L205.385904,140.973891 L205.385904,140.973891 L210.53211,121.2609 L201.963682,121.2609 L196.772995,140.984297 L182.943278,140.984297 L188.115794,121.2609 L179.484524,121.2609 L174.273205,141 L160,141 L166.862617,115.045155 L166.917325,115.045036 C166.935444,115.044997 166.958006,115.044948 166.984923,115.044889 L167.342392,115.044124 C170.216599,115.038022 185.470157,115.006718 198.544646,115.000923 L206.011384,115.000913 C211.927287,115.00419 216.523801,115.016708 217.880046,115.045155 Z M226.005453,135 C227.625756,135 229,136.281791 229,137.986168 C229,139.723822 227.625756,141 226.005453,141 L226.005453,141 L225.831991,140.995154 C224.280418,140.908256 223,139.661763 223,137.986168 C223,136.281791 224.37702,135 226.005453,135 Z M106.703696,115 C110.310857,115.115498 113.885558,118.604637 112.803447,123.06045 C112.08329,125.97839 111.266312,128.986669 110.681819,131.522475 L110.681819,131.522475 L101.944809,131.522475 L109.84026,140.990626 L109.84026,140.990626 L100.594536,140.990854 C99.8277354,140.992379 99.1591696,140.997627 98.5715622,140.999405 L97.8593168,140.999214 C95.3268624,140.986993 94.5296884,140.820214 93.4881318,139.67479 C92.8041712,138.912652 91.5334744,137.388124 90.2230899,135.797675 L89.8293309,135.31926 C87.9256962,133.004091 86.053635,130.696759 85.8808936,130.520541 C85.8689425,130.503564 85.2824979,132.732572 84.6544073,135.137965 L84.4968254,135.74179 C83.8128833,138.363909 83.1321779,140.990626 83.1321779,140.990626 L83.1321779,140.990626 L82.8548169,140.990097 C82.8248242,140.99004 82.7925385,140.98998 82.7580284,140.989915 L82.3892377,140.989228 C82.3420006,140.98914 82.2927455,140.98905 82.2415411,140.988955 L81.7299287,140.988025 C81.5430858,140.987688 81.3405563,140.987326 81.124197,140.986945 L80.6735888,140.986156 C80.439615,140.98575 80.1930491,140.985327 79.9357479,140.984892 L79.407382,140.984007 C78.4144865,140.98236 77.2939025,140.980595 76.1371594,140.978949 L75.5031727,140.978064 C75.1849364,140.977629 74.8652485,140.977206 74.5459655,140.9768 L73.9084898,140.976011 C73.5905721,140.97563 73.2742972,140.975268 72.9615218,140.974931 L72.035551,140.974 C71.9342444,140.973906 71.833533,140.973816 71.7334855,140.973728 L70.8528403,140.973041 C70.7573952,140.972976 70.6628202,140.972915 70.5691843,140.972859 L69,140.97233 C70.1014377,136.722735 73.5883231,123.305931 73.8611494,122.418161 C73.8742784,122.374929 73.8910988,122.308926 73.9130117,122.223117 L73.9498755,122.079921 C74.353371,120.533055 76.0172048,115 83.437278,115 L83.437278,115 Z M226.005453,135.502773 C224.653019,135.502773 223.595618,136.580087 223.595618,137.986168 C223.595618,139.436552 224.653019,140.491814 226.005453,140.491814 C227.349757,140.491814 228.40458,139.436552 228.40458,137.986168 C228.40458,136.580087 227.349757,135.502773 226.005453,135.502773 Z M226.16665,136.281791 C226.975414,136.281791 227.371567,136.580087 227.371567,137.251453 C227.371567,137.870297 226.989095,138.146542 226.491821,138.204477 L226.491821,138.204477 L227.459007,139.723822 L226.879845,139.723822 L225.978091,138.226529 L225.382472,138.226529 L225.382472,139.723822 L224.86894,139.723822 L224.86894,136.281791 Z M226.092892,136.718209 L225.382472,136.718209 L225.382472,137.787304 L226.005453,137.787304 C226.431744,137.787304 226.833449,137.765252 226.833449,137.229201 C226.833449,136.789977 226.442649,136.718209 226.092892,136.718209 L226.092892,136.718209 Z M144.742279,120.592404 L133.852497,120.592404 L132.171489,126.940752 L143.095473,126.921132 L144.742279,120.592404 Z M99.311116,120.646623 L88.5532404,120.646623 L86.8337216,126.896273 L97.6730323,126.896273 L99.311116,120.646623 Z" fill="#FF375F" fill-rule="nonzero"></path>
    </g>
</svg>