<?xml version="1.0" encoding="UTF-8"?>
<svg width="175px" height="53px" viewBox="0 0 175 53" version="1.1" xmlns="http://www.w3.org/2000/svg" xmlns:xlink="http://www.w3.org/1999/xlink">
    <title>velo-wordmark</title>
    <g id="Page-1" stroke="none" stroke-width="1" fill="none" fill-rule="evenodd">
        <g id="velo-wordmark" fill="#FFFFFF" fill-rule="nonzero">
            <path d="M66.9663,48.0848 C66.1967,50.31 64.1011,51.8026 61.7466,51.8026 C59.3921,51.8026 57.2964,50.31 56.5268,48.0848 L41.5017,4.64263 C40.7157,2.36993 42.4037,0 44.8085,0 C46.298,0 47.6242,0.943018 48.1134,2.34994 L60.8085,38.8656 C61.1305,39.7919 62.4405,39.7919 62.7625,38.8656 L75.4663,2.3252 C75.9503,0.933088 77.2625,0 78.7364,0 C81.1159,0 82.7861,2.34498 82.0083,4.59375 L66.9663,48.0848 Z" id="Path"></path>
            <path d="M87.5036,35.366 C86.9324,35.366 86.4614,35.8327 86.5672,36.3941 C86.7419,37.3222 87.1507,38.2778 87.7935,39.2609 C88.7283,40.6112 89.7929,41.7537 90.9874,42.6885 C93.1685,44.4022 95.7132,45.2591 98.6214,45.2591 C102.226,45.2591 105.309,43.9013 107.871,41.1856 C109.149,39.8302 111.181,39.3086 112.785,40.258 C114.461,41.2503 115.017,43.4483 113.773,44.9466 C112.186,46.8565 110.382,48.4148 108.359,49.6214 C105.399,51.3871 102.153,52.27 98.6214,52.27 C95.9729,52.27 93.4542,51.7766 91.0653,50.7899 C88.6764,49.7513 86.5731,48.3231 84.7555,46.5055 C82.9379,44.6879 81.5097,42.5846 80.4711,40.1957 C79.4843,37.8068 78.991,35.2881 78.991,32.6395 C78.991,29.991 79.4843,27.4723 80.4711,25.0834 C81.5097,22.6425 82.9379,20.5133 84.7555,18.6957 C86.5212,16.878 88.5985,15.4759 90.9874,14.4892 C93.4282,13.5024 95.9729,13.0091 98.6214,13.0091 C101.27,13.0091 103.789,13.5024 106.178,14.4892 C108.618,15.4759 110.722,16.878 112.487,18.6957 C116.33,22.6425 118.252,27.2126 118.252,32.4058 C118.252,34.1142 116.754,35.366 115.046,35.366 L87.5036,35.366 Z M98.6214,19.3968 C96.4922,19.3968 94.4928,19.8642 92.6232,20.7989 C90.7537,21.7337 89.2476,22.9801 88.1051,24.5381 C87.2361,25.7382 86.7133,27.0043 86.5367,28.3363 C86.4617,28.9027 86.9324,29.3678 87.5036,29.3678 L109.739,29.3678 C110.311,29.3678 110.782,28.9025 110.703,28.3366 C110.518,27.0045 109.97,25.7383 109.06,24.5381 C107.969,22.9801 106.489,21.7337 104.62,20.7989 C102.75,19.8642 100.751,19.3968 98.6214,19.3968 Z" id="Shape"></path>
            <path d="M126.658,51.8805 C124.937,51.8805 123.542,50.4854 123.542,48.7646 L123.542,3.19385 C123.542,1.47296 124.937,0.0778977 126.658,0.0778977 C128.379,0.0778977 129.774,1.47296 129.774,3.19385 L129.774,48.7646 C129.774,50.4855 128.379,51.8805 126.658,51.8805 Z" id="Path"></path>
            <path d="M154.749,52.27 C152.101,52.27 149.582,51.7507 147.193,50.712 C144.804,49.6734 142.701,48.2452 140.883,46.4276 C139.066,44.61 137.638,42.5067 136.599,40.1178 C135.56,37.7289 135.041,35.2102 135.041,32.5616 C135.041,29.8612 135.56,27.2905 136.599,24.8497 C137.638,22.4088 139.066,20.2796 140.883,18.462 C142.701,16.6443 144.804,15.2422 147.193,14.2555 C149.582,13.2168 152.101,12.6975 154.749,12.6975 C157.45,12.6975 160.021,13.2168 162.461,14.2555 C164.902,15.2422 167.031,16.6443 168.849,18.462 C170.667,20.2796 172.069,22.4088 173.056,24.8497 C174.094,27.2905 174.614,29.8612 174.614,32.5616 C174.614,35.2102 174.094,37.7289 173.056,40.1178 C172.069,42.5067 170.667,44.61 168.849,46.4276 C167.031,48.2452 164.902,49.6734 162.461,50.712 C160.021,51.7507 157.45,52.27 154.749,52.27 Z M154.749,19.6305 C151.27,19.6305 148.284,20.8768 145.791,23.3696 C144.597,24.564 143.662,25.9662 142.987,27.5761 C142.312,29.186 141.974,30.8479 141.974,32.5616 C141.974,34.2754 142.312,35.9113 142.987,37.4693 C143.662,39.0272 144.597,40.4034 145.791,41.5979 C146.986,42.7923 148.336,43.7271 149.842,44.4022 C151.4,45.0774 153.036,45.4149 154.749,45.4149 C156.463,45.4149 158.125,45.0774 159.735,44.4022 C161.345,43.7271 162.721,42.7923 163.864,41.5979 C165.006,40.4034 165.915,39.0272 166.59,37.4693 C167.265,35.9113 167.603,34.2754 167.603,32.5616 C167.603,30.8479 167.265,29.186 166.59,27.5761 C165.915,25.9662 165.006,24.564 163.864,23.3696 C162.721,22.1752 161.345,21.2663 159.735,20.6431 C158.177,19.968 156.515,19.6305 154.749,19.6305 Z" id="Shape"></path>
            <path d="M3.3962,51.5322 C4.8704,51.5322 5.99004,50.7736 7.66947,49.1268 L19.7055,37.2475 C19.8361,37.1365 19.948,37.044 20.0787,37.044 C20.1906,37.044 20.3026,37.1365 20.4332,37.2475 L32.4692,49.1268 C34.1486,50.7736 35.2684,51.5322 36.7424,51.5322 C38.7017,51.5322 40.1387,50.0704 40.1387,47.9241 C40.1387,46.8323 39.7653,45.6111 39.2616,44.2419 L24.2213,3.90426 C23.3069,1.42486 22.0007,0 20.0787,0 C18.138,0 16.8317,1.42486 15.9174,3.90426 L0.877033,44.2419 C0.373224,45.6111 0,46.8323 0,47.9241 C0,50.0704 1.43687,51.5322 3.3962,51.5322 Z" id="Path"></path>
        </g>
    </g>
</svg>