<?xml version="1.0" encoding="UTF-8"?>
<svg width="256px" height="256px" viewBox="0 0 256 256" version="1.1" xmlns="http://www.w3.org/2000/svg" xmlns:xlink="http://www.w3.org/1999/xlink">
    <title>wahoo</title>
    <g id="wahoo" stroke="none" stroke-width="1" fill="none" fill-rule="evenodd">
        <path d="M119,98 C120.903079,98 122.776879,98 124.679958,98 C125.938918,98 127.197877,98 128.456837,98 C128.456837,100.349936 128.456837,102.699872 128.456837,105.049808 L128.456837,105.049808 L128.456837,105.049808 L128.456837,105.049808 L128.456837,105.049808 L128.456837,105.049808 L128.456837,105.049808 L128.456837,105.049808 L128.456837,105.049808 L128.456837,105.049808 L128.456837,105.049808 L128.456837,105.049808 L128.456837,105.049808 L128.456837,105.049808 C128.456837,109.749681 128.456837,114.449553 128.456837,119.149425 C129.862188,117.093231 131.940935,115.360153 134.458855,114.831418 C137.445224,114.273308 140.870766,114.56705 143.271573,116.59387 C144.969705,117.974457 145.994439,120.030651 146.492168,122.11622 C147.019174,124.289911 147.019174,126.551724 146.989896,128.784163 L146.989896,128.784163 L146.989896,128.784163 L146.989896,128.784163 L146.989896,128.784163 L146.989896,128.784163 L146.989896,128.784163 L146.989896,128.784163 L146.989896,128.784163 L146.989896,128.784163 L146.989896,128.784163 L146.989896,128.784163 L146.989896,128.784163 L146.989896,128.784163 L146.989896,128.784163 C146.989896,129.371648 146.989896,129.929757 146.989896,130.487867 C146.989896,132.191571 146.989896,133.895275 146.989896,135.628352 L146.989896,135.657727 C146.989896,138.418902 146.989896,141.150702 146.960618,143.911877 C145.086817,143.882503 143.183739,143.911877 141.309938,143.911877 C140.050978,143.911877 138.792019,143.911877 137.533059,143.911877 C137.533059,141.796935 137.533059,139.711367 137.533059,137.596424 L137.533059,137.56705 C137.533059,134.62963 137.533059,131.721584 137.533059,128.784163 C137.445224,127.021711 137.328112,125.083014 136.069152,123.702427 C134.312464,121.998723 131.004035,122.498084 129.715797,124.554278 C128.837453,125.905492 128.544672,127.521073 128.544672,129.10728 C128.544672,131.369093 128.544672,133.630907 128.544672,135.863346 C128.544672,138.565773 128.544672,141.268199 128.544672,143.970626 C126.465924,144 124.416455,144 122.337707,144 C121.254416,144 120.171125,144 119.087834,144 C119.058556,141.033206 119.087834,138.095785 119.087834,135.128991 C119.087834,129.753512 119.117113,124.378033 119,118.97318 L119,115.47765 L119,115.47765 L119,115.47765 L119,115.47765 L119,115.47765 L119,115.47765 L119,115.47765 L119,115.47765 L119,115.47765 L119,115.47765 L119,115.47765 L119,115.47765 L119,115.47765 L119,115.47765 C119,109.661558 119.029278,103.845466 119,98 Z M161.493907,114.163996 C166.254755,113.534436 171.368258,114.70362 175.041752,117.911382 C180.919341,123.007827 181.565876,132.810988 177.010744,138.98668 C171.456422,146.181661 159.848182,146.931138 153.030178,141.175153 C149.679951,138.387098 147.916674,133.950193 148.004838,129.633205 C147.916674,126.005735 149.033416,122.318308 151.355064,119.530253 C153.823652,116.472386 157.614698,114.643662 161.493907,114.163996 Z M209.724466,119.363717 C205.905404,115.700505 200.176811,114.421288 194.97701,115.235335 C190.893551,115.845871 186.956979,117.939135 184.606787,121.311615 C182.19784,124.684096 181.580915,129.01599 182.256595,132.999006 C182.844143,136.487779 184.812429,139.773041 187.750169,141.866305 C191.833628,144.831762 197.297825,145.616736 202.203851,144.541031 C206.40482,143.639765 210.312014,141.023185 212.2803,137.214607 C215.188663,131.54535 214.454228,123.928195 209.724466,119.363717 Z M37,116.115375 C39.2150776,116.144218 41.4301552,116.144218 43.6452328,116.144218 C44.9922395,116.144218 46.3691796,116.144218 47.7161863,116.144218 C48.6141907,118.105588 49.4822616,120.066959 50.3503326,121.999485 L50.3503326,121.999485 L50.3503326,121.999485 L50.3503326,121.999485 L50.3503326,121.999485 L50.3503326,121.999485 L50.3503326,121.999485 L50.3503326,121.999485 L50.3503326,121.999485 L50.3503326,121.999485 L50.3503326,121.999485 L50.3503326,121.999485 C51.6973392,125.028071 53.0443459,128.027814 54.4512195,131.027556 C56.0077605,127.45094 57.594235,123.903168 59.210643,120.326552 L59.210643,120.297708 C59.8691796,118.855524 60.4977827,117.442184 61.1563193,116 L62.5931264,116 L62.6230599,116 C64.0299335,116 65.4667406,116 66.8736142,116 C68.04102,118.595931 69.2084257,121.191862 70.405765,123.816637 L70.405765,123.84548 L70.405765,123.84548 L70.405765,123.874324 L70.405765,123.874324 L70.405765,123.903168 L70.4356984,123.960855 L70.4656319,124.018542 C71.5133038,126.326037 72.5609756,128.633531 73.6086475,130.969869 C75.075388,127.854751 76.4822616,124.710791 77.8592018,121.56683 L77.8592018,121.56683 C78.6973392,119.720834 79.5055432,117.874839 80.3436807,116.028844 C81.8104213,116.028844 83.2771619,116.028844 84.7439024,116.028844 C86.8392461,116.028844 88.9345898,116.028844 91,116.057687 C88.6651885,120.701519 86.3303769,125.316508 83.9955654,129.931496 L83.9656319,129.96034 C81.6308204,134.604172 79.2660754,139.248004 76.9312639,143.891836 C74.8059867,143.92068 72.6807095,143.92068 70.5554324,143.891836 C69.8070953,142.218903 69.0886918,140.54597 68.3702882,138.90188 C66.9334812,135.556013 65.4667406,132.210147 63.8802661,128.921968 C62.6829268,131.748648 61.4556541,134.575328 60.1984479,137.373165 L60.1984479,137.373165 C59.2405765,139.565285 58.2827051,141.786248 57.3248337,143.978367 C56.1873614,144.007211 55.0498891,144.007211 53.9124169,143.978367 L53.9124169,143.978367 C52.9545455,143.978367 52.0266075,143.978367 51.0687361,143.978367 C49.8713969,141.642029 48.7039911,139.305691 47.5066519,136.969354 L47.4467849,136.853979 L47.4467849,136.853979 L47.4467849,136.853979 L47.4467849,136.853979 L47.4467849,136.853979 L47.4467849,136.853979 L47.4467849,136.853979 L47.4467849,136.853979 L47.4467849,136.853979 L47.4467849,136.853979 L47.4467849,136.853979 L47.4467849,136.853979 C43.9745011,129.989184 40.4423503,123.066701 37,116.115375 Z M108.485228,118.529311 C104.467144,113.82018 96.5482912,113.994592 92.0902705,118.035143 C85.5205557,123.877954 85.3152521,135.04034 91.4450306,141.261044 C94.377939,144.255122 98.9532761,145.708557 103.118006,144.662084 C105.317687,144.138847 107.400052,142.830755 108.514557,140.854082 C108.514557,141.377319 108.514557,141.929625 108.514557,142.452861 C108.514557,142.976098 108.514557,143.499335 108.514557,144.051641 C110.655581,144.080709 112.825933,144.080709 114.966956,144.080709 L114.966956,144.080709 C115.964145,144.080709 116.961334,144.080709 117.987851,144.080709 C118.017181,138.266967 117.987851,132.453224 117.958522,126.639482 L117.958522,126.639482 L117.958522,126.639482 L117.958522,126.639482 L117.958522,126.639482 L117.958522,126.639482 L117.958522,126.639482 L117.958522,126.639482 L117.958522,126.639482 L117.958522,126.639482 L117.958522,126.639482 C117.929193,123.093099 117.899864,119.546716 117.899864,115.971265 L116.169448,115.971265 C113.588489,115.971265 111.00753,115.971265 108.455899,115.971265 C108.397241,116.814257 108.42657,117.686319 108.485228,118.529311 Z M169.24748,124.767448 C167.631484,123.053455 164.987128,122.572335 162.842261,123.384226 C158.670054,124.917798 157.817983,131.022018 160.668012,134.179372 C163.047933,136.825537 167.866538,136.554906 169.835115,133.577972 C171.568637,130.931807 171.362965,127.112912 169.24748,124.767448 Z M195.654996,123.44799 C197.651694,122.663816 200.147566,122.87494 201.791906,124.352805 C204.405231,126.645005 204.698863,130.988119 202.672802,133.762887 C200.411835,136.899581 194.950279,136.718618 193.012307,133.34064 C191.044973,130.083304 191.955232,124.956016 195.654996,123.44799 Z M99.8618477,123.380698 C101.833665,122.656668 104.188074,122.958347 105.80673,124.34607 C108.60259,126.819837 108.720311,131.676868 106.189321,134.36181 C104.129214,136.383059 100.5976,136.533899 98.3020519,134.814329 C94.7115785,131.948379 95.388471,125.009764 99.8618477,123.380698 Z" fill="#FF375F" fill-rule="nonzero"></path>
    </g>
</svg>