<?xml version="1.0" encoding="UTF-8"?>
<svg width="256px" height="256px" viewBox="0 0 256 256" version="1.1" xmlns="http://www.w3.org/2000/svg" xmlns:xlink="http://www.w3.org/1999/xlink">
    <title>bontrager</title>
    <g id="bontrager" stroke="none" stroke-width="1" fill="none" fill-rule="evenodd">
        <path d="M169.659343,171.062806 C172.297672,171.062806 174.492776,171.605373 176.357373,172.514746 L176.357373,172.514746 L174.228179,175.488358 C172.936716,174.778627 171.221134,174.301015 169.533254,174.301015 C165.174567,174.301015 161.94591,177.864955 161.94591,181.149015 C161.94591,183.179821 163.298507,184.363343 165.972179,184.363343 C166.925493,184.363343 168.001075,184.152239 168.891343,183.788299 L168.891343,183.788299 L170.022328,181.223522 L165.339821,181.223522 L166.726806,178.115224 L175.381134,178.115224 L171.740776,186.284299 C170.075821,186.961552 167.814806,187.493612 165.243343,187.491707 C160.129075,187.491707 157.488836,184.959403 157.488836,181.134687 C157.488836,176.573493 161.902925,171.062806 169.659343,171.062806 Z M72.5923582,171.064716 C77.7075821,171.064716 80.0803582,173.682985 80.0803582,177.411224 C80.0803582,181.971463 75.6099104,187.485015 68.6654328,187.485015 C63.550209,187.485015 61.1764776,184.854328 61.1764776,181.136597 C61.1764776,176.575403 65.6488358,171.064716 72.5923582,171.064716 Z M208.765254,171.506985 C211.71594,171.506985 213.667463,172.949373 213.667463,175.300179 C213.667463,178.174448 211.71594,180.460299 207.277015,181.127045 C207.243582,183.543761 207.954269,185.351045 209.167403,187.038925 L209.167403,187.038925 L204.848836,187.038925 C204.085612,185.583164 203.581254,183.944 203.596537,181.456597 L203.596537,181.456597 L199.400239,181.835821 L197.083821,187.040836 L192.800597,187.040836 L199.713552,171.506985 Z M133.300657,171.506985 C136.250388,171.506985 138.202866,172.949373 138.202866,175.300179 C138.202866,178.174448 136.250388,180.460299 131.815284,181.127045 C131.783761,183.543761 132.494448,185.351045 133.701851,187.038925 L133.701851,187.038925 L129.384239,187.038925 C128.621015,185.583164 128.120478,183.944 128.13194,181.456597 L128.13194,181.456597 L123.936597,181.835821 L121.618269,187.040836 L117.335045,187.040836 L124.24609,171.506985 Z M153.015522,171.50603 L154.66806,187.039881 L150.472716,187.039881 L150.25206,184.024239 L142.408716,184.024239 L139.979582,187.039881 L135.077373,187.039881 L148.279522,171.50603 L153.015522,171.50603 Z M55.3964179,171.50794 C58.5276418,171.50794 60.145791,172.797493 60.145791,174.802507 C60.145791,176.564896 58.8476418,177.952836 56.8072836,178.696 C57.8723582,179.226149 58.6365373,180.114507 58.6155224,181.567403 C58.5945075,184.188537 55.8310448,187.039881 50.7397015,187.039881 L50.7397015,187.039881 L39,187.039881 L45.9129552,171.50794 Z M196.006328,171.50603 L194.561075,174.754746 L184.587582,174.754746 L183.312358,177.631881 L191.933254,177.58603 L190.570149,180.672358 L181.938746,180.717254 L180.596657,183.732896 L191.112716,183.732896 L189.63594,187.038925 L174.846209,187.038925 L181.759164,171.50603 L196.006328,171.50603 Z M121.485493,171.50603 L120.021134,174.81206 L114.317493,174.81206 L108.883224,187.038925 L104.62197,187.038925 L110.058149,174.81206 L103.732657,174.81206 L105.19797,171.50603 L121.485493,171.50603 Z M91.0768955,171.50603 L94.3160597,180.813731 L98.464597,171.50603 L102.65994,171.50603 L95.7460299,187.038925 L92.2183881,187.038925 L88.4796418,176.26591 L83.6872836,187.038925 L79.4938507,187.038925 L86.4058507,171.50603 L91.0768955,171.50603 Z M72.2503881,174.190209 C68.5116418,174.190209 65.6373731,178.184 65.6373731,181.149015 C65.6373731,183.009791 66.6460896,184.352836 69.0093134,184.352836 C72.745194,184.352836 75.6213731,180.36191 75.6213731,177.397851 C75.6213731,175.533254 74.6136119,174.190209 72.2503881,174.190209 Z M53.8212537,180.094448 L46.0791642,180.751642 L44.6807164,183.877134 L51.1475821,183.877134 C53.144,183.877134 54.3322985,182.736597 54.3322985,181.304716 C54.3322985,180.82806 54.1890149,180.397254 53.8212537,180.094448 L53.8212537,180.094448 Z M149.620657,175.070925 L144.893254,180.936955 L150.040955,180.936955 L149.620657,175.070925 Z M207.941851,174.545552 L202.640358,174.545552 L200.808239,178.653015 L206.710567,178.097075 C208.455761,177.932776 209.472119,176.943164 209.496955,175.813134 C209.506507,174.966806 208.930507,174.545552 207.941851,174.545552 L207.941851,174.545552 Z M132.479164,174.545552 L127.176716,174.545552 L125.344597,178.653015 L131.246925,178.097075 C132.989254,177.932776 134.011343,176.943164 134.033313,175.813134 C134.046687,174.966806 133.46591,174.545552 132.479164,174.545552 L132.479164,174.545552 Z M54.5109254,174.480597 L48.8617313,174.480597 L47.3763582,177.821015 L53.455403,177.288955 C55.0095522,177.154269 55.9523582,176.45409 55.9533134,175.498866 C55.9533134,174.846448 55.520597,174.480597 54.5109254,174.480597 L54.5109254,174.480597 Z M116.653015,114.421851 C122.34997,108.191881 131.448478,102.433791 142.995224,103.214209 C154.498985,103.988896 158.770746,111.220896 157.413373,118.962985 C156.432358,124.59594 152.479642,131.93206 147.588896,136.759761 L147.482179,136.86542 C144.738698,139.586296 136.328478,148.198567 122.626985,148.198567 C109.530866,148.198567 104.926687,140.733493 106.644179,132.14794 C107.816239,126.290507 111.912239,119.694687 116.653015,114.421851 Z M108.030209,64.7454328 C110.65803,63.7281194 113.02794,66.1467463 111.456597,69.7278806 L111.456597,69.7278806 L89.7768358,116.159403 L85.5795821,124.789851 C83.4102687,119.338388 82.2181493,113.403582 82.2181493,107.18794 C82.2181493,88.7549851 92.7055522,72.7244179 108.030209,64.7454328 Z M142.40203,61 C160.685015,65.9012537 174.68191,81.3930746 177.378507,100.474627 C171.713075,93.6648358 160.572299,89.9652537 146.83809,89.9652537 C140.703642,89.9652537 134.607403,90.6214925 128.696478,91.9635821 L128.696478,91.9635821 Z" fill="#FF375F" fill-rule="nonzero"></path>
    </g>
</svg>