<?xml version="1.0" encoding="UTF-8"?>
<svg width="256px" height="256px" viewBox="0 0 256 256" version="1.1" xmlns="http://www.w3.org/2000/svg" xmlns:xlink="http://www.w3.org/1999/xlink">
    <title>garmin</title>
    <g id="garmin" stroke="none" stroke-width="1" fill="none" fill-rule="evenodd">
        <path d="M50.6266897,117.615207 C57.2894138,117.615207 61.5828966,119.943324 61.6344552,119.972786 C62.4090621,120.498193 62.5158621,121.156179 62.198531,121.790841 C62.198531,121.790841 61.4362,123.333303 61.4343586,123.339441 C61.0329379,124.101772 60.2877931,124.367545 59.5678138,123.994359 C59.5279172,123.970421 55.4946828,121.497448 49.3696414,122.021628 C41.8028,122.669179 41.4197931,129.071041 41.4197931,130.348959 C41.4197931,131.871779 41.8997793,136.9546 48.0610345,138.428317 C52.3084828,139.441076 57.594469,137.896772 58.7551517,137.422924 L58.7551517,137.422924 L58.7558489,136.847252 C58.7559196,136.796 58.7559945,136.742245 58.7560731,136.686342 L58.7568637,136.134793 C58.7569591,136.069193 58.7570565,136.002509 58.7571553,135.935095 L58.7577604,135.524689 C58.7578626,135.455774 58.757965,135.386838 58.7580672,135.318236 L58.7589639,134.719407 C58.7590593,134.656 58.7591527,134.59399 58.7592437,134.533732 L58.7599787,134.048292 C58.7600494,134.001738 58.760116,133.958 58.7601777,133.917432 L58.7606759,133.591014 C58.7606759,133.023869 58.2997172,132.563524 57.7325724,132.563524 L57.7325724,132.563524 L51.8579586,132.563524 C51.0986966,132.563524 50.6002966,131.944821 50.6002966,131.186172 L50.6002966,131.186172 L50.6002966,130.334841 C50.6002966,129.577421 51.0986966,128.960559 51.8579586,128.960559 L51.8579586,128.960559 L62.0143931,128.960559 C62.7724276,128.960559 63.3892897,129.577421 63.3892897,130.334841 L63.3892897,130.334841 L63.3892897,138.555986 C63.3892897,139.636876 62.7736552,140.213841 62.2678897,140.499869 C62.1261034,140.594393 58.709731,142.778883 50.6254621,142.778883 C48.1825655,142.778883 36,142.17491 36,130.264255 L36,130.264255 L36.0005992,130.174686 C36.0219232,128.520149 36.6943473,117.615808 50.6266897,117.615207 Z M209.403917,139.067276 L209.403917,139.444759 L208.35249,139.444759 L208.35249,142.506972 L207.903193,142.506972 L207.903193,139.444759 L206.856676,139.444759 L206.856676,139.067276 L209.403917,139.067276 Z M210.756717,139.066662 L211.344117,140.730655 C211.486517,141.154172 211.598841,141.532269 211.69091,141.888883 L211.701345,141.888883 C211.7928,141.54209 211.915559,141.164607 212.069007,140.730655 L212.681572,139.066662 L213.248103,139.066662 L213.462931,142.506359 L213.023455,142.506359 L212.941207,140.996428 C212.915428,140.516441 212.884738,139.934566 212.884738,139.511048 L212.874303,139.511048 C212.752159,139.908786 212.614055,140.342738 212.440966,140.817814 L211.83331,142.486103 L211.496338,142.486103 L210.934717,140.848503 C210.771448,140.358697 210.639483,139.919221 210.54189,139.511048 L210.531455,139.511048 C210.521021,139.939476 210.495241,140.511531 210.465166,141.032028 L210.37371,142.506359 L209.950193,142.506359 L210.190186,139.066662 L210.756717,139.066662 Z M80.4183655,118.090283 C81.0806483,118.090283 81.8632345,118.573338 82.1572414,119.165034 L82.1572414,119.165034 L82.1738913,119.19769 C82.6531081,120.137587 93.3183103,141.055428 93.5523103,141.512628 C93.7904621,141.97911 93.5007517,142.481193 92.8390828,142.481193 L92.8390828,142.481193 L89.260669,142.481193 C88.3123586,142.481193 87.8237793,142.006731 87.5328414,141.427924 C87.2443586,140.849117 86.6575724,139.788483 86.5299034,139.533759 C86.3341034,139.142772 85.9087448,139.016945 85.2470759,139.015717 L85.2470759,139.015717 L73.7648483,139.009579 C73.1037931,139.008966 72.6348552,139.208448 72.4826345,139.533759 C72.3703103,139.774366 71.7822966,140.953462 71.5177517,141.496055 C71.2544345,142.038648 70.8082069,142.481193 69.834731,142.481193 L69.834731,142.481193 L67.3685103,142.481193 C66.7062276,142.481193 66.3839862,142.058903 66.6804483,141.469048 L66.6804483,141.469048 L77.3518552,119.174855 C77.6378828,118.578862 78.4112621,118.090283 79.0723172,118.090283 L79.0723172,118.090283 Z M168.849379,118.090896 C169.510434,118.090896 169.937634,118.630421 169.937634,119.292703 L169.937634,119.292703 L169.937634,141.397234 C169.937634,142.058903 169.396269,142.481193 168.735214,142.481193 L168.735214,142.481193 L165.819083,142.481193 C165.1568,142.481193 164.616048,142.063814 164.616048,141.454931 L164.616048,141.454931 L164.616048,119.33751 C164.616048,118.497228 165.1568,118.090283 165.819083,118.090896 L165.819083,118.090896 Z M110.696779,118.090283 C111.357221,118.090283 112.43811,118.114834 113.099779,118.14491 C113.099779,118.14491 114.731855,118.221634 115.941641,118.483724 C117.149586,118.747041 118.186897,119.16749 119.053572,119.740772 C119.920248,120.310986 120.586214,121.056131 121.050855,121.966386 C121.515497,122.879097 121.748738,124.00111 121.748738,125.335497 C121.748738,127.376359 121.14231,128.942145 119.935593,130.026717 C118.72949,131.108221 116.209869,131.862572 116.209869,131.862572 C115.577048,132.051621 115.368359,132.649455 115.748297,133.190821 C115.748297,133.190821 121.378007,141.211255 121.604497,141.533497 C121.833441,141.857579 121.72971,142.481193 121.068041,142.481193 L121.068041,142.481193 L117.322062,142.481193 C116.661007,142.481193 116.162607,142.208055 115.638428,141.504648 L115.638428,141.504648 L109.998897,133.564007 C109.616503,133.022641 108.763331,132.58071 108.10289,132.58071 L108.10289,132.58071 L107.869454,132.580988 C107.832317,132.581034 107.7912,132.581085 107.746436,132.581141 L107.254033,132.581784 C107.190369,132.581871 107.124052,132.581962 107.055414,132.582058 L106.618385,132.582687 C106.541789,132.5828 106.463535,132.582919 106.383955,132.583041 L105.89321,132.583824 C104.389142,132.586316 102.670207,132.590071 102.670207,132.594214 C102.670207,132.600352 102.667138,132.605262 102.662228,132.605262 C102.662105,132.605262 102.661984,132.609604 102.661865,132.618094 L102.661171,132.717278 C102.661059,132.741592 102.660949,132.769668 102.66084,132.801315 L102.66021,133.032487 C102.660108,133.077641 102.660008,133.125978 102.65991,133.177307 L102.65907,133.714811 C102.658982,133.782349 102.658895,133.852299 102.65881,133.924468 L102.658086,134.628694 C102.65801,134.712441 102.657936,134.797828 102.657863,134.884662 L102.657061,135.983792 C102.657,136.079116 102.656941,136.175116 102.656883,136.271599 L102.656115,137.730898 C102.65607,137.82738 102.656027,137.92338 102.655985,138.018705 L102.655003,140.825189 C102.654989,140.876518 102.654976,140.924856 102.654965,140.97001 L102.654862,141.397234 C102.654862,142.058903 102.11411,142.481193 101.452441,142.481193 L101.452441,142.481193 L98.5866414,142.481193 C97.9255862,142.481193 97.3848345,142.059517 97.3848345,141.397234 L97.3848345,141.397234 L97.3848345,119.29209 C97.3848345,118.629807 97.9262,118.090283 98.5866414,118.090283 L98.5866414,118.090283 Z M182.201834,118.090283 C183.107793,118.090283 183.78051,118.4782 184.240241,118.954503 L184.240241,118.954503 L198.397993,133.639503 C198.85711,134.115807 199.231524,133.965428 199.231524,133.302531 L199.231524,133.302531 L199.231062,132.433958 C199.23103,132.373216 199.230996,132.3097 199.230961,132.243541 L199.230042,130.511565 C199.229991,130.41495 199.229939,130.316625 199.229886,130.216724 L199.229039,128.616665 C199.228979,128.504335 199.22892,128.391095 199.228859,128.277078 L199.228122,126.880126 C199.22806,126.762027 199.227997,126.643685 199.227935,126.525233 L199.227005,124.75681 C199.226944,124.640583 199.226884,124.524912 199.226823,124.409929 L199.226124,123.071728 C199.226068,122.964388 199.226013,122.858269 199.225958,122.753506 L199.225074,121.042873 C199.225031,120.959165 199.224989,120.877611 199.224949,120.798345 L199.224159,119.163193 C199.224159,118.526076 199.758772,118.090283 200.419828,118.090283 L200.419828,118.090897 L202.87991,118.090897 C203.542193,118.090897 204.082945,118.630421 204.082945,119.292703 L204.082945,119.292703 L204.082945,141.278772 C204.082945,141.940441 203.542193,142.481193 202.87991,142.481193 L202.87991,142.481193 L200.87649,142.481193 C199.863117,142.481193 199.293517,142.0988 198.824579,141.629248 L198.824579,141.629248 L184.062241,126.282579 C183.604352,125.805048 183.230552,125.956041 183.230552,126.617097 L183.230552,126.617097 L183.230059,127.149844 C183.230014,127.198504 183.229966,127.250194 183.229916,127.304788 L183.22919,128.09113 C183.22912,128.166915 183.229047,128.245094 183.228973,128.325541 L183.228252,129.107339 C183.228166,129.200244 183.228079,129.295034 183.22799,129.391583 L183.227149,130.304566 C183.227051,130.41052 183.226952,130.517851 183.226852,130.626432 L183.22624,131.291894 C183.226136,131.404964 183.226031,131.519029 183.225926,131.633962 L183.225283,132.332959 C183.225175,132.450856 183.225066,132.569365 183.224957,132.688361 L183.224298,133.407155 C183.224187,133.527587 183.224077,133.648251 183.223966,133.76902 L183.223302,134.493872 C183.223192,134.614551 183.223082,134.73508 183.222972,134.855332 L183.222317,135.572503 C183.222208,135.691139 183.222101,135.809243 183.221994,135.926688 L183.221051,136.962482 C183.220949,137.074831 183.220847,137.18614 183.220748,137.296282 L183.220162,137.942104 C183.220067,138.047067 183.219974,138.150608 183.219882,138.252601 L183.219096,139.125272 C183.219014,139.216825 183.218934,139.306447 183.218856,139.394012 L183.218018,140.337866 C183.217957,140.406932 183.217899,140.473432 183.217843,140.537237 L183.217048,141.512628 C183.217048,142.12151 182.754248,142.481193 182.094421,142.481193 L182.094421,142.481193 L179.42749,142.481193 C178.765207,142.481193 178.335552,142.050924 178.335552,141.599786 L178.335552,141.599786 L178.335552,118.98949 C178.335552,118.537124 178.701986,118.090283 179.5392,118.090283 L179.5392,118.090283 Z M132.871897,118.090283 C133.712793,118.090283 134.316152,118.575179 134.610159,119.165034 L134.610159,119.165034 L141.530676,131.874234 C141.847393,132.453041 142.375869,132.454883 142.696883,131.877303 L142.696883,131.877303 L149.846959,119.134345 C150.175338,118.559221 150.727752,118.090897 151.645986,118.090897 L151.645986,118.090897 L155.244041,118.090897 C155.906324,118.090897 156.445848,118.630421 156.445848,119.292703 L156.445848,119.292703 L156.445848,141.278772 C156.445848,142.151586 155.906324,142.481193 155.244041,142.481193 L155.244041,142.481193 L152.556855,142.481193 C151.894572,142.481193 151.38451,142.064428 151.38451,141.426083 L151.38451,141.426083 L151.384963,140.422037 C151.384992,140.358002 151.385022,140.291335 151.385052,140.222153 L151.385964,137.508928 C151.385989,137.401125 151.386012,137.291976 151.386034,137.181596 L151.386045,133.248287 C151.386016,133.124999 151.385984,133.001766 151.385948,132.878707 L151.385132,131.060404 C151.385058,130.941997 151.384979,130.824347 151.384895,130.707572 L151.384015,129.683359 C151.38154,127.252866 151.376608,125.41529 151.367324,125.41529 C151.362094,125.41529 151.000476,126.074444 150.427307,127.125271 L150.169133,127.598825 C149.448383,128.921424 148.478347,130.705684 147.475222,132.552331 L147.097922,133.246968 C144.892881,137.306979 142.658828,141.426697 142.658828,141.426697 C142.340883,142.006731 141.575483,142.004276 141.263676,141.421786 C141.263676,141.421786 132.651545,125.369255 132.625766,125.369255 C132.61161,125.369255 132.60231,130.35302 132.596881,134.768217 L132.596012,135.497867 C132.595595,135.859107 132.595205,136.214257 132.594841,136.560104 L132.594147,137.238439 C132.594037,137.34911 132.593929,137.45851 132.593825,137.566518 L132.593233,138.196929 C132.59314,138.298899 132.593049,138.39924 132.592962,138.497833 L132.592041,139.58944 C132.591975,139.672146 132.591912,139.752629 132.591852,139.830769 L132.591043,140.958564 C132.591013,141.004307 132.590986,141.046992 132.590962,141.086502 L132.590779,141.426083 C132.590779,142.063814 132.113862,142.481193 131.451579,142.481193 L131.451579,142.481193 L129.118552,142.481193 C128.349469,142.481193 127.914903,142.029441 127.914903,141.369 L127.914903,141.369 L127.914903,119.29209 C127.914903,118.629807 128.456883,118.090283 129.118552,118.090283 L129.118552,118.090283 Z M79.9316276,125.470531 C79.6584897,124.870855 79.2061241,124.866559 78.9262345,125.466848 L78.9262345,125.466848 L74.7211379,134.47549 C74.4430897,135.073938 74.7542828,135.5662 75.4153379,135.5662 L75.4153379,135.5662 L83.3209931,135.572338 C83.9814345,135.572338 84.2987655,135.080076 84.0256276,134.479172 L84.0256276,134.479172 Z M109.487607,122.075028 L103.873855,122.075028 C103.212186,122.075028 102.671434,122.615779 102.671434,123.277448 L102.671434,123.277448 L102.671434,127.756297 C102.671434,128.417352 103.212186,128.958717 103.873855,128.958717 L103.873855,128.958717 L109.487607,128.958717 C110.149276,128.958717 111.230166,128.935393 111.890607,128.906545 C111.890607,128.906545 111.905458,128.905934 111.932959,128.90447 L112.051209,128.89728 C112.329504,128.878523 112.923866,128.82667 113.468055,128.701538 C114.210131,128.532745 114.798759,128.29091 115.229641,127.980331 C115.662366,127.669752 115.971103,127.305772 116.157697,126.887166 C116.341834,126.469172 116.435745,126.010669 116.435745,125.515338 C116.435745,125.017552 116.341834,124.561503 116.157697,124.142897 C115.971103,123.72429 115.662366,123.36031 115.229641,123.049731 C114.798759,122.740993 114.210131,122.502228 113.468055,122.330979 C112.923866,122.205397 112.329504,122.154084 112.051209,122.135647 L111.932959,122.128603 C111.905458,122.127175 111.890607,122.126586 111.890607,122.126586 C111.230166,122.098966 110.149276,122.075028 109.487607,122.075028 L109.487607,122.075028 Z M191.097538,95 C191.681869,95 192.183952,95.2897103 192.476117,95.7954759 L200.452359,109.605207 C200.745752,110.111586 200.745752,110.691621 200.452972,111.198 C200.160807,111.703766 199.658724,111.994703 199.073779,111.994703 L183.120069,111.99409 C182.535124,111.99409 182.033041,111.703152 181.740876,111.196772 C181.44871,110.690393 181.44871,110.110972 181.74149,109.604593 L189.718959,95.7954759 C190.011124,95.2897103 190.512593,95 191.097538,95 Z" fill="#FF375F" fill-rule="nonzero"></path>
    </g>
</svg>