<?xml version="1.0" encoding="UTF-8"?>
<svg width="256px" height="256px" viewBox="0 0 256 256" version="1.1" xmlns="http://www.w3.org/2000/svg" xmlns:xlink="http://www.w3.org/1999/xlink">
    <title>quarq</title>
    <g id="quarq" stroke="none" stroke-width="1" fill="none" fill-rule="evenodd">
        <path d="M184.443722,124.937748 L184.443722,124.837956 C184.443722,119.781856 180.448882,115.657143 175.544647,115.657143 L154.628571,115.657143 L154.628571,143 L160.084939,143 L160.084939,120.447132 L174.992514,120.447132 C177.07113,120.447132 178.857441,122.34317 178.857441,124.571846 L178.857441,125.503233 C178.857441,127.665381 177.136087,129.395099 174.992514,129.395099 L167.132747,129.395099 L163.884909,134.151825 L173.530987,134.151825 L179.052311,143 L185.742857,143 L179.182225,133.253702 C182.365106,131.823358 184.443722,128.596767 184.443722,124.937748 M217.50068,134.617518 L212.397279,131.490719 L202.816054,131.490719 L221.418776,143 L231,143 L221.748027,137.278624 C222.933333,135.349322 223.822313,133.15391 223.822313,130.891971 L223.822313,127.765172 C223.822313,121.079145 218.45551,115.657143 211.837551,115.657143 L200.774694,115.657143 C194.453061,116.023045 189.514286,121.345255 189.514286,127.765172 L189.514286,130.891971 C189.514286,137.577998 194.881088,143 201.499048,143 L204.95619,143 L209.763265,138.21001 L201.499048,138.21001 C198.00898,138.21001 195.078639,135.149739 195.078639,131.557247 L195.078639,127.099896 C195.078639,123.507404 198.00898,120.447132 201.499048,120.447132 C201.499048,120.447132 212.068027,120.447132 212.166803,120.447132 C215.52517,120.613452 218.257959,123.607195 218.257959,127.099896 L218.257959,131.790094 C218.225034,132.721481 217.928707,133.752659 217.50068,134.617518 M113.142857,115.657143 L107.517045,115.657143 L107.517045,131.557247 C107.517045,135.149739 104.554339,138.21001 101.025723,138.21001 L93.2028482,138.21001 C89.6742323,138.21001 86.7115265,135.149739 86.7115265,131.557247 L86.7115265,115.657143 L81.0857143,115.657143 L81.0857143,130.758916 L81.0857143,131.490719 L81.0857143,131.490719 C81.3853138,137.877372 86.6782377,143 93.1695594,143 L100.992434,143 C107.683489,143 113.109568,137.577998 113.109568,130.891971 L113.109568,115.657143 L113.142857,115.657143 Z M130.273717,115.657143 L112.2,143 L118.825936,143 L124.303814,134.185089 L130.995354,134.185089 L133.914702,129.428363 L127.190361,129.428363 L132.30742,121.079145 L146.084119,143 L152.742857,143 L134.406727,115.657143 L130.273717,115.657143 Z M73.3448256,137.164835 L82.9714286,143 L72.0412231,143 L49.9468323,129.615385 L60.8770377,129.615385 L68.8992069,134.494505 C69.3003153,133.604396 69.4674439,132.615385 69.4674439,131.659341 L69.4674439,121.373626 C69.4674439,117.78022 66.4925561,114.78022 62.9494314,114.78022 L45.1669565,114.78022 C41.6238318,114.78022 38.6489441,117.813187 38.6489441,121.373626 L38.6489441,131.659341 C38.6489441,135.21978 41.6238318,138.252747 45.1669565,138.252747 L59.7739895,138.252747 L55.0943908,143 L45.1669565,143 C38.4483899,143 33,137.626374 33,131 L33,122 C33,115.373626 38.4483899,110 45.1669565,110 L62.9160057,110 C69.6345724,110 75.0829623,115.373626 75.0829623,122 L75.0829623,131 C75.0829623,133.208791 74.4812996,135.318681 73.3448256,137.164835" fill="#FF375F" fill-rule="nonzero"></path>
    </g>
</svg>