<?xml version="1.0" encoding="UTF-8"?>
<svg width="256px" height="256px" viewBox="0 0 256 256" version="1.1" xmlns="http://www.w3.org/2000/svg" xmlns:xlink="http://www.w3.org/1999/xlink">
    <title>shimano</title>
    <g id="shimano" stroke="none" stroke-width="1" fill="none" fill-rule="evenodd">
        <path d="M42.5568942,124.220944 L42.5515324,124.220944 C42.3960416,124.208008 42.2977428,124.208008 42.2977428,124.208008 L41.0520289,124.208008 L41.0520289,124.220944 L40.1655524,124.220944 L40.1655524,124.20616 L28.1427153,124.20616 C27.4474747,124.20616 26.9112994,123.631447 26.9112994,122.554092 L26.9112994,120.574938 C26.9112994,119.578892 27.2937711,119.00418 28.2195671,119.00418 L45.8436486,119.00418 L45.8436486,113.000094 L24.7523003,113.000094 C24.7523003,113.000094 20,112.909639 20,118.329678 L20,125.085784 C20,129.744467 24.4431058,130.439297 24.4431058,130.439297 L24.4466803,130.439297 C24.6039584,130.450385 38.8572847,130.489191 38.8572847,130.489191 C39.5507381,130.489191 40.0887006,131.026945 40.0887006,132.1043 L40.0887006,134.083455 C40.0887006,135.029605 39.7276759,135.580295 38.9001787,135.633885 L20.0482558,135.633885 L20.0482558,141.903981 L42.2459125,142.000094 C42.2459125,142.000094 47,142.053665 47,136.633626 L47,129.572608 C47,124.915773 43.5327332,124.302253 42.5568942,124.220944 M85,142.000094 L93,142.000094 L93,113.000094 L85,113.000094 L85,142.000094 Z M72.3093448,113.000094 L72.3093448,129.329122 L60.6924875,129.329122 L60.6924875,113.000094 L52,113.000094 L52,142.000094 L60.6924875,142.000094 L60.6924875,135.664608 L72.3093448,135.664608 L72.3093448,142.000094 L81,142.000094 L81,113.000094 L72.3093448,113.000094 M139.251102,117.147438 C138.802969,116.055643 137.478772,114.234137 136.297831,113.79631 C134.793647,113.240252 133.430881,113.107242 132.433601,113.020415 C133.412515,113.105394 101,113.000094 101,113.000094 L101,142.000094 L109.870832,142.000094 L109.870832,117.886386 L116.258566,117.886386 L116.258566,142.000094 L125.129398,142.000094 L125.129398,117.886386 L127.561072,117.886386 C127.522503,117.906707 127.493117,117.917791 127.452712,117.939959 C127.452712,117.939959 131.414282,117.382054 131.414282,121.922887 L131.465707,121.858229 L131.465707,142.000094 L139.993093,142.000094 L139.993093,121.71044 C139.993093,121.71044 140.123493,119.275607 139.251102,117.147438 M171.258152,117.134766 C170.812286,116.042414 169.501985,114.21998 168.331813,113.78193 C166.841345,113.225588 165.150693,113.09251 164.162507,113.005639 C164.086073,112.998246 150.913906,112.998246 150.837471,113.005639 C149.852926,113.09251 148.162273,113.225588 146.671805,113.78193 C145.499814,114.21998 144.187692,116.042414 143.743646,117.134766 C142.879211,119.26402 143.006601,121.700094 143.006601,121.700094 L143.006601,142.000094 L151.274238,142.000094 L151.274238,135.728775 L163.203439,135.728775 L163.203439,142.000094 L171.993377,142.000094 L171.993377,121.700094 C171.993377,121.700094 172.120767,119.26402 171.258152,117.134766 Z M151,130.000094 L151,121.017631 L151.053089,121.081164 C151.053089,116.488092 155,117.052416 155,117.052416 C154.961556,117.031861 154.930435,117.018781 154.891991,117.000094 L159.108009,117.000094 C159.071396,117.018781 159.040275,117.031861 159.001831,117.052416 C159.001831,117.052416 162.948741,116.488092 162.948741,121.081164 L163,121.017631 L163,130.000094 L151,130.000094 M203.253244,117.155175 C202.804427,116.06372 201.485456,114.242781 200.307541,113.805091 C198.807211,113.249206 197.105372,113.116237 196.110648,113.029438 C196.006229,113.020204 195.92013,113.014664 195.830367,113.01097 L195.830367,113.009123 L195.80472,113.009123 C195.383382,112.988808 195.145234,113.009123 195.145234,113.009123 L176,113.009123 L176,142.000094 L184.848099,142.000094 L184.848099,117.868038 C184.848099,117.868038 191.182825,117.845876 191.144355,117.868038 C191.144355,117.868038 195.093941,117.336161 195.093941,121.875581 L195.145234,142.000094 L203.993333,142.000094 L203.993333,121.716756 C203.993333,121.716756 204.121566,119.282682 203.253244,117.155175 M233.993469,127.657477 L233.993469,121.616172 C233.993469,121.616172 234.119497,119.207691 233.264308,117.102553 C232.825011,116.022574 231.526924,114.220782 230.367468,113.787693 C228.892943,113.237653 227.220374,113.106082 226.246358,113.020196 C226.183345,113.014713 224.950072,113.007404 222.940829,113.005576 L222.940829,113.000094 C222.940829,113.000094 221.023405,113.000094 220.27444,113.001922 C219.527275,113.000094 219.00876,113.000094 219.00876,113.000094 L219.00876,113.005576 C216.999517,113.007404 215.816655,113.014713 215.753642,113.020196 C214.779626,113.106082 213.107057,113.237653 211.632532,113.787693 C210.473076,114.220782 209.174989,116.022574 208.735692,117.102553 C207.880503,119.207691 208.006531,121.616172 208.006531,121.616172 L208.006531,133.389956 C208.006531,133.389956 207.880503,135.800265 208.735692,137.903574 C209.174989,138.983553 210.473076,140.785346 211.632532,141.218434 C213.107057,141.768474 214.779626,141.909182 215.753642,141.995069 C215.831059,142.002379 218.259795,142.000551 220.27444,141.996896 C222.290885,142.000551 226.168941,142.002379 226.246358,141.995069 C227.220374,141.909182 228.892943,141.768474 230.367468,141.218434 C231.526924,140.785346 232.825011,138.983553 233.264308,137.903574 C234.119497,135.800265 233.993469,133.389956 233.993469,133.389956 L233.993469,127.657477 Z M226,133.068334 L225.948167,133.004478 C225.948167,137.488946 222.025546,136.970806 222.064421,136.990875 L219.935579,136.990875 C219.976305,136.970806 216.053684,137.488946 216.053684,133.004478 L216,133.068334 L216,122.922635 L216.053684,122.986491 C216.053684,118.502023 219.350611,119.053003 219.350611,119.053003 C219.311736,119.03111 219.976305,119.020163 219.935579,119.000094 L222.064421,119.000094 C222.025546,119.020163 222.743799,119.03111 222.703073,119.053003 C222.703073,119.053003 225.948167,118.502023 225.948167,122.986491 L226,122.922635 L226,133.068334" fill="#FF375F" fill-rule="nonzero"></path>
    </g>
</svg>